<?xml version="1.0" encoding="UTF-8" standalone="no"?>
<!-- Created with Inkscape (http://www.inkscape.org/) -->

<svg
   version="1.1"
   id="svg203"
   width="789.508"
   height="789.50836"
   viewBox="0 0 789.508 789.50836"
   sodipodi:docname="logo.svg"
   inkscape:version="1.1 (c68e22c387, 2021-05-23)"
   xmlns:inkscape="http://www.inkscape.org/namespaces/inkscape"
   xmlns:sodipodi="http://sodipodi.sourceforge.net/DTD/sodipodi-0.dtd"
   xmlns="http://www.w3.org/2000/svg"
   xmlns:svg="http://www.w3.org/2000/svg">
  <defs
     id="defs207" />
  <sodipodi:namedview
     id="namedview205"
     pagecolor="#ffffff"
     bordercolor="#000000"
     borderopacity="0"
     inkscape:pageshadow="0"
     inkscape:pageopacity="1"
     inkscape:pagecheckerboard="true"
     showgrid="false"
     inkscape:zoom="1.0234742"
     inkscape:cx="390.33716"
     inkscape:cy="391.31422"
     inkscape:window-width="1920"
     inkscape:window-height="1057"
     inkscape:window-x="-8"
     inkscape:window-y="-8"
     inkscape:window-maximized="1"
     inkscape:current-layer="g209"
     fit-margin-top="0"
     fit-margin-left="0"
     fit-margin-right="0"
     fit-margin-bottom="0"
     inkscape:showpageshadow="true" />
  <g
     inkscape:groupmode="layer"
     inkscape:label="Image"
     id="g209"
     transform="translate(-72.359441,-29.37885)">
    <path
       style="fill:#0155b3"
       d="M 488.50475,716.43333 C 488.19419,715.92 487.2165,711.9 486.33211,707.5 483.16515,691.74379 456.72477,545.54667 456.72477,543.79175 c 0,-1.60207 1.05147,-1.79175 9.93261,-1.79175 8.59357,0 10.00318,0.23592 10.45603,1.75 0.28787,0.9625 4.77432,15.475 9.96988,32.25 12.38207,39.97821 20.7267,68.34767 25.00201,85 5.58951,21.77118 6.06125,18.5222 -4.89057,33.68258 -10.72047,14.84013 -17.85069,23.13802 -18.68998,21.75075 z m 32.22002,-40.73146 c 0,-0.42423 -9,-30.45125 -20,-66.72671 -11,-36.27546 -20,-66.18484 -20,-66.46527 0,-0.28044 1.17314,-0.50989 2.60699,-0.50989 1.85606,0 2.4481,-0.41405 2.05538,-1.43745 -0.30338,-0.7906 -1.04387,-3.2656 -1.64553,-5.5 C 482.79738,531.55593 482.26936,531 479.88306,531 c -2.53654,0 -2.93997,-0.55688 -4.88995,-6.75 -4.7971,-15.23549 -20.26834,-66.12224 -20.26834,-66.66499 0,-0.32176 1.8,-0.58501 4,-0.58501 3.05432,0 4,0.39102 4,1.6539 0,0.90965 1.53392,4.39715 3.40872,7.75 5.01896,8.97585 19.19294,40.03236 52.30088,114.5961 16.2401,36.575 29.67484,66.75525 29.85499,67.06723 0.18014,0.31198 -5.9482,6.83095 -13.61853,14.48661 -7.67033,7.65565 -13.94606,13.57227 -13.94606,13.14803 z M 549.3975,642.78971 C 548.63448,640.98037 533.27216,606.2 515.25899,565.5 c -18.01316,-40.7 -35.90496,-81.2 -39.75955,-90 -3.85459,-8.8 -7.48745,-16.59453 -8.07303,-17.32119 -0.85101,-1.05603 -0.34468,-1.25672 2.52294,-1 3.9342,0.35222 2.68894,-1.56747 48.13797,74.20892 7.22028,12.03825 14.75343,23.73825 16.74034,26 1.98692,2.26175 3.94661,5.23727 4.35487,6.61227 1.09652,3.69297 10.09877,20.59367 20.29144,38.09489 4.93454,8.47281 9.77846,17.5627 10.76425,20.19975 l 1.79236,4.79463 -3.40291,3.55765 c -1.87159,1.95671 -6.65189,6.22949 -10.62289,9.49508 l -7.21998,5.93742 z M 572.4232,616.7439 C 569.94767,612.75975 564.45044,603.2 560.20712,595.5 544.48715,566.97423 542.3413,563.28786 535.75876,553.5 528.22303,542.29479 503.71462,501.60262 490.28601,478 485.43575,469.475 480.6118,461.2625 479.56612,459.75 L 477.6649,457 h 6.34851 c 5.99624,0 6.42793,-0.15973 7.77993,-2.87863 l 1.43143,-2.87863 15,17.45497 c 8.25,9.60024 18.53692,21.35812 22.85982,26.12863 4.3229,4.77051 12.30344,14.1553 17.73452,20.85508 5.43109,6.69978 10.33167,12.46384 10.89018,12.80901 2.51677,1.55545 0.52026,2.50877 -5.23452,2.49945 -6.2618,-0.0101 -18.75,3.48023 -18.75,5.24051 0,0.47328 1.10455,1.96506 2.45455,3.31506 2.38316,2.38317 2.88479,2.45502 17.25,2.47066 l 14.79545,0.0161 11,12.72066 c 6.05,6.99637 14.57574,17.00162 18.94608,22.23389 4.37035,5.23227 9.87973,11.80809 12.24308,14.61293 l 4.29699,5.09971 -18.68083,12.90029 c -10.27446,7.09516 -19.22648,13.23504 -19.89338,13.64419 -0.80291,0.49258 -2.73308,-1.70327 -5.71351,-6.5 z M 613.25498,586.25 c -3.481,-3.7125 -13.35226,-15.075 -21.93613,-25.25 -15.3023,-18.13877 -15.5494,-18.50604 -12.65471,-18.80932 1.74211,-0.18252 2.78981,-0.7974 2.55585,-1.5 -0.21806,-0.65487 -0.88604,-3.10318 -1.48439,-5.44068 l -1.08792,-4.25 -6.21145,-0.0285 -6.21146,-0.0285 -8.5,-10.19837 c -4.675,-5.60911 -13.24169,-15.60877 -19.03709,-22.22147 -9.08164,-10.36238 -27.91202,-32.4542 -49.40884,-57.96649 -3.27026,-3.88113 -10.96435,-12.9066 -17.09798,-20.0566 -14.75394,-17.19875 -22.88088,-27.8584 -21.57196,-28.29471 1.67037,-0.55679 2.53585,0.18519 48.15436,41.28302 l 43.17078,38.89268 -0.68385,9.12131 c -0.54176,7.22603 -0.39331,9.36245 0.71439,10.28176 1.11613,0.92631 2.21762,0.30855 5.45936,-3.06181 2.23361,-2.32224 4.25542,-4.86836 4.49291,-5.65806 0.31338,-1.04206 1.51173,-0.43246 4.36986,2.22295 l 3.93806,3.65874 -4.44528,0.0271 c -3.4235,0.0208 -5.08107,0.63618 -7.21129,2.67706 l -2.766,2.65 2.02938,2.85 c 2.02561,2.84471 2.0503,2.85 13.29981,2.85 h 11.27043 l 5.62469,4.75 c 4.07465,3.44101 5.51628,5.30115 5.23133,6.75 -0.21634,1.1 -0.70398,6.1133 -1.08364,11.14067 -0.69034,9.14128 0.79626,19.35933 2.81654,19.35933 0.48833,0 2.15732,-1.26944 3.70886,-2.82098 2.4518,-2.4518 2.90944,-3.85866 3.49693,-10.75 0.37178,-4.36096 0.77422,-8.3235 0.89431,-8.80565 0.21259,-0.85352 15.56021,12.73918 46.78671,41.43691 8.44097,7.7574 15.47153,14.44024 15.62346,14.85076 C 655.79188,576.69696 622.57471,593 620.68252,593 c -0.60414,0 -3.94653,-3.0375 -7.42754,-6.75 z m 42.71798,-16 c -2.22902,-1.5125 -16.31561,-14 -31.30352,-27.75 -14.98791,-13.75 -28.0954,-25.59749 -29.12777,-26.32776 -1.68663,-1.19308 -1.80978,-2.21847 -1.21413,-10.10889 0.84126,-11.14401 -0.1028,-11.96558 -6.50428,-5.66036 l -4.71013,4.6393 -2.36849,-2.52114 L 578.37614,500 h 2.98722 c 2.01227,0 3.92318,-0.97693 5.85496,-2.99327 l 2.86773,-2.99326 -2.35495,-2.50674 c -2.20483,-2.34692 -2.99729,-2.50955 -12.43064,-2.55101 l -10.07569,-0.0443 -6.37212,-5.94245 -6.37212,-5.94246 0.87212,-8.53948 0.87212,-8.53948 15.40586,10.94426 c 10.21847,7.25916 15.81744,11.89781 16.62822,13.77621 0.67229,1.55758 2.55754,4.08695 4.18943,5.62083 2.65349,2.49412 3.10547,2.62213 4.27649,1.21113 1.17613,-1.41715 1.57358,-1.33576 3.90471,0.79959 1.42741,1.30754 5.28263,3.86022 8.56715,5.67263 3.28453,1.81242 12.83715,8.07261 21.22805,13.91154 8.39089,5.83893 17.17856,11.84043 19.52813,13.33667 6.89457,4.39054 17.19633,12.84652 18.19319,14.9335 0.50668,1.06074 1.51052,1.7025 2.23075,1.42612 1.28952,-0.49483 19.50614,12.42889 22.26212,15.79379 1.21879,1.48808 1.21879,1.91874 0,3.11819 C 689.26941,561.83975 662.7646,573 660.93332,573 c -0.49917,0 -2.73134,-1.2375 -4.96036,-2.75 z m 40.75181,-15.37076 c -1.375,-0.5467 -7.34717,-4.23067 -13.27148,-8.18662 -8.98818,-6.00182 -10.67181,-7.52374 -10.16942,-9.19262 0.33114,-1.1 1.31158,-8.975 2.17875,-17.5 0.86717,-8.525 1.69075,-15.64734 1.83018,-15.82743 0.47736,-0.61658 28.92596,14.89839 33.65016,18.35173 2.595,1.89693 5.46574,4.58988 6.37943,5.98434 2.14628,3.27563 3.96419,20.10949 2.37805,22.02068 -1.59168,1.91785 -12.74338,5.48174 -16.91984,5.40729 -1.95571,-0.0349 -4.68083,-0.51068 -6.05583,-1.05737 z m -41,-27.99571 c -3.575,-2.75689 -18.34677,-13.15701 -32.82616,-23.11137 l -26.32617,-18.09884 0.68893,-8.27048 c 0.37891,-4.54877 0.97568,-9.64432 1.32616,-11.32346 l 0.63724,-3.05299 34.70438,18.18931 c 22.61144,11.85113 34.40639,18.55431 33.84918,19.2368 -0.47036,0.57613 -1.36408,6.2225 -1.98603,12.5475 -1.46659,14.91472 -2.0948,19.01166 -2.90543,18.94803 -0.36415,-0.0286 -3.5871,-2.30761 -7.1621,-5.0645 z M 450.40796,510.25 l -3.69019,-20.75 2.47914,-2.18108 c 2.05945,-1.81185 2.61583,-3.50472 3.28658,-10 l 0.80745,-7.81892 5.65565,17 c 5.99579,18.02241 13.77818,42.79783 13.77818,43.86318 0,0.35025 -4.19099,0.63682 -9.31331,0.63682 h -9.3133 z m 244.79834,-0.14467 c -12.81046,-6.22069 -18.53503,-9.53804 -19.80564,-11.47723 -1.31263,-2.00333 -2.31362,-2.56047 -3.76988,-2.09827 -1.37026,0.4349 -5.90936,-1.52912 -14.69437,-6.35812 C 636.85539,479.13345 600.58323,460 599.73852,460 c -0.42244,0 -0.55957,-1.9125 -0.30473,-4.25 0.36754,-3.37123 0.0239,-4.71523 -1.66179,-6.5 -2.87769,-3.04677 -3.79472,-2.84737 -5.74862,1.25 -0.91797,1.925 -1.98636,3.5 -2.3742,3.5 -0.74718,0 -88.05407,-46.08262 -110.92441,-58.5485 -12.51175,-6.81975 -19.60963,-11.30952 -16,-10.12079 1.77781,0.58547 109.55764,46.58979 166.5,71.06821 l 40,17.19522 -0.33961,7.45293 c -0.31018,6.80688 -0.13129,7.6479 2.06364,9.70217 l 2.40325,2.24923 2.62569,-2.74923 c 1.61247,-1.68833 2.93853,-4.55795 3.43636,-7.43634 l 0.81067,-4.6871 12.04511,5.1871 c 20.25797,8.72388 21.31796,9.88253 23.35951,25.53391 0.99697,7.64318 0.67653,10.20363 -1.26161,10.08069 -0.62865,-0.0399 -9.25132,-4.00985 -19.16148,-8.82217 z m 4.01847,-27.54142 c -4.95,-1.84574 -11.0962,-4.269 -13.65821,-5.38502 -2.56202,-1.11602 -4.9611,-1.72625 -5.33129,-1.35606 -0.37019,0.37019 -0.43994,-0.45101 -0.155,-1.82488 0.28493,-1.37387 0.77544,-5.08545 1.09002,-8.24795 l 0.57195,-5.75 h -5.50873 -5.50874 l -0.0153,3.75 c -0.0303,7.4161 -0.0573,7.41361 -21.15957,-1.951 -18.34724,-8.14199 -68.35977,-29.59824 -128.82513,-55.26823 -15.125,-6.42118 -28.175,-12.36574 -29,-13.21014 -1.33862,-1.3701 -1.28482,-1.47471 0.5,-0.97237 1.1,0.3096 8.525,2.19009 16.5,4.17886 7.975,1.98877 39.7,10.35916 70.5,18.60087 66.54433,17.80645 115.0403,30.5601 118.5,31.16357 1.375,0.23984 -7.67681,0.49736 -20.11514,0.57226 -21.25299,0.12798 -22.77384,0.26102 -25.25,2.20876 -3.75108,2.9506 -3.29472,4.29582 2.11514,6.23482 6.7797,2.42997 37.63616,2.45279 44.82186,0.0332 2.71048,-0.9127 5.18759,-2.05047 5.5047,-2.52838 1.14438,-1.72469 2.87538,4.33132 4.54365,15.89627 2.1836,15.13732 2.21819,16.68308 0.37979,16.974 -0.825,0.13055 -5.55,-1.27279 -10.5,-3.11853 z m -146.5,-27.68074 c -63.40322,-44.89661 -79.06405,-56.15245 -78.67253,-56.54398 0.41193,-0.41193 20.86488,10.0658 79.97047,40.96761 l 34.79794,18.1932 -0.52594,4.5 c -0.28927,2.475 -0.81269,7.0875 -1.16316,10.25 -0.35048,3.1625 -0.92288,5.72679 -1.272,5.69841 -0.34913,-0.0284 -15.25978,-10.40773 -33.13478,-23.06524 z m -14.51587,9.30505 C 536.00016,462.1597 522.31212,449.7 507.79101,436.5 473.44964,405.28294 469.58977,401.60266 472.87287,403.20642 474.32933,403.91789 490.85607,415.3 509.59896,428.5 l 34.07799,24 -0.0337,4 c -0.0186,2.2 -0.34529,5.6597 -0.72609,7.68822 l -0.69237,3.68822 -4.01587,-3.68822 z m -99.36035,-19.0127 c -6.32694,-35.71657 -8.22748,-47.40516 -7.78063,-47.852 0.57795,-0.57796 6.61985,17.56018 12.13706,36.43614 3.72504,12.74442 4.11962,14.95411 2.9141,16.31908 -2.04599,2.31662 -1.71212,3.62468 1.10569,4.3319 1.375,0.34511 2.5,1.34204 2.5,2.2154 0,1.01461 -0.54158,1.36878 -1.5,0.98095 -0.825,-0.33385 -2.175,-0.88013 -3,-1.21398 -1.16554,-0.47164 -1.5,0.18413 -1.5,2.94098 0,8.44062 -1.79747,3.22152 -4.87622,-14.15847 z M 449.4807,441.75 c -0.83752,-2.8875 -3.54226,-11.775 -6.01054,-19.75 -5.43493,-17.56029 -6.25783,-20.86345 -4.85519,-19.48904 0.96204,0.94268 9.93384,20.65016 16.95302,37.23904 l 3.06766,7.25 h -3.81609 c -3.74351,0 -3.84506,-0.0999 -5.33886,-5.25 z m 8.8066,-5.372 c -2.55852,-5.8421 -4.43261,-10.84125 -4.16464,-11.10922 0.52166,-0.52167 5.2132,6.61801 10.50139,15.98122 l 3.2475,5.75 h -2.46619 c -2.17485,0 -3.01576,-1.25486 -7.11806,-10.622 z m 2.43747,-9.04535 c -13.8471,-23.58448 -18.45008,-32.2159 -17.62185,-33.04413 0.85082,-0.85082 5.94606,4.76248 26.13467,28.7919 9.50998,11.31924 18.04219,21.33174 18.96046,22.25 1.55944,1.55944 1.08763,1.66693 -7.15185,1.62935 l -8.82143,-0.0402 z m 234,16.02784 c -2.475,-0.79297 -55.36083,-15.34596 -117.52408,-32.33998 -62.16324,-16.99402 -114.36324,-31.42937 -116,-32.07856 -5.40114,-2.14226 -0.69834,-2.13059 13.76236,0.0342 47.81054,7.15716 152.95139,23.44439 214.64641,33.25058 6.92908,1.10135 7.4674,1.37172 8.72534,4.3824 2.56233,6.13253 5.74242,24.30886 4.71943,26.97473 -0.65826,1.7154 -2.42632,1.668 -8.32946,-0.22333 z m -438.5,-10.27683 -3,-0.67971 3,-1.59128 c 7.8326,-4.15461 80.15756,-29.05166 118.5,-40.79229 7.425,-2.27357 14.175,-4.35992 15,-4.63632 7.47536,-2.50451 -16.77094,10.47998 -59.42208,31.82198 l -29.92208,14.97257 -15.07792,0.87792 c -17.14249,0.99813 -24.76089,1.00524 -29.07792,0.0271 z m -21.32709,-7.91075 c -4.14506,-4.14506 -8.17291,-11.51291 -8.17291,-14.95009 0,-2.41647 1.34357,-2.89998 17,-6.11771 31.76805,-6.529 144.02367,-26.15299 149,-26.04746 3.58304,0.076 -15.03818,6.84625 -67,24.35972 C 272.36546,420.40185 245.08583,429 241.38516,429 c -1.75042,0 -3.96942,-1.30903 -6.48748,-3.82709 z m 101.82709,-5.6288 c 0,-1.51979 55.58571,-30.29173 56.58715,-29.29029 1.47385,1.47385 -31.30915,19.81596 -46.78054,26.17374 -8.80092,3.61662 -9.80661,3.93623 -9.80661,3.11655 z m 318.5,-15.60654 c -55.1823,-8.79238 -161.42525,-25.96987 -166,-26.83909 -3.94543,-0.74964 -3.91133,-0.76869 2.5,-1.39678 3.575,-0.35023 34.85,-1.11372 69.5,-1.69665 34.65,-0.58293 77.85,-1.34024 96,-1.68291 l 33,-0.62304 3.40978,16.40045 c 4.28477,20.60901 4.32232,21.35171 1.09022,21.5669 -1.375,0.0915 -19.15,-2.48644 -39.5,-5.72888 z m -429.89301,-2.51936 c -1.0792,-2.81234 -0.65056,-11.70301 0.99703,-20.67998 l 1.60809,-8.76177 80.64394,0.65044 c 44.35417,0.35774 80.74172,0.7233 80.86122,0.81237 C 390.17404,373.98484 230.81781,403 227.08941,403 c -0.63287,0 -1.42381,-0.7118 -1.75765,-1.58179 z m 232.89301,-31.14058 c 2.45918,-2.4049 198.75459,-32.34628 214,-32.6419 l 7,-0.13573 1.7887,3.65862 c 1.92438,3.93614 6.68002,21.99112 6.69947,25.43482 0.0113,2.00892 -0.62409,2.1199 -15.73817,2.74889 -28.27609,1.17672 -214.83161,1.99304 -213.75,0.9353 z m -212.16724,-1.13268 c -7.79199,-0.35472 -14.52709,-1.00505 -14.96689,-1.44517 -1.73245,-1.7337 7.63123,-22.13305 12.99373,-28.30762 l 2.1404,-2.46453 11.7803,2.02438 c 27.55078,4.73444 90.36447,17.80326 121.11867,25.19958 10.25383,2.46602 12.52505,3.31143 11.07556,4.1226 -2.10593,1.17854 -121.53307,1.9 -144.14177,0.87076 z m 130.66724,-9.10027 c -47.78028,-9.87872 -118.92443,-25.92485 -124.72985,-28.13207 -2.04206,-0.77639 -2.13925,-1.11643 -1.0388,-3.63457 C 255.04836,318.91382 265.78149,304 268.42846,304 c 1.75039,0 41.46446,17.42322 92.29631,40.49192 37.7187,17.11764 44.42379,20.41577 41.5,20.4132 -1.1,-9.6e-4 -12.575,-2.18816 -25.5,-4.86044 z m 80,4.55014 c 0,-2.46765 202.84456,-61.59482 211.3102,-61.59482 0.90114,0 2.31475,1.30783 3.14135,2.9063 2.0952,4.05167 6.54845,19.743 6.54845,23.0739 0,2.42301 -0.45364,2.82149 -3.75,3.29404 -2.0625,0.29567 -27.15,4.1614 -55.75,8.59053 -40.68423,6.30054 -132.73592,20.08827 -157.75,23.62818 -2.0625,0.29188 -3.75,0.33772 -3.75,0.10187 z m -52,-3.865 c -1.375,-0.62415 -16.225,-7.29769 -33,-14.83009 -62.53203,-28.07845 -98,-45.11737 -98,-47.0795 0,-3.1677 14.0609,-14.00089 28.23557,-21.75403 l 7.73556,-4.23113 26.26444,22.79986 c 70.89098,61.53966 80.06587,70.22493 68.76443,65.09489 z m 49.5,-2.3796 C 459.36168,354.27622 650.52947,266 654.21509,266 c 0.84649,0 2.43645,1.4625 3.53324,3.25 2.7889,4.54523 8.11685,18.53077 8.70866,22.8597 l 0.49348,3.6097 -7.36285,3.06289 c -8.2506,3.43219 -30.22569,10.1227 -117.36285,35.73221 -63.96984,18.80065 -87.39019,25.49811 -89,25.4511 -0.55,-0.0161 -0.1,-0.74298 1,-1.61538 z m -56.50061,-13.44098 c -30.6279,-25.87551 -81.99904,-71.41087 -81.67865,-72.39992 1.19447,-3.68746 21.62299,-6.00189 31.4476,-3.56283 10.3957,2.58083 15.44688,8.49475 42.04933,49.23129 19.66203,30.10863 24.37202,37.75315 23.98187,38.9236 -0.16542,0.49626 -7.27549,-4.99021 -15.80015,-12.19214 z m 56.55061,7.18419 c 2.37883,-2.27008 135.05954,-94.19597 156.35967,-108.33151 18.30914,-12.15061 25.58512,-16.16977 27.76097,-15.33481 1.34236,0.51511 16.92009,31.38478 16.15962,32.02277 -0.30972,0.25984 -50.6879,23.72792 -134.83026,62.80908 C 478.68464,342.32066 455.09815,353 454.03846,353 c -0.39253,0 -0.28619,-0.40796 0.23631,-0.90657 z m 1.36139,-7.9617 c 3.53866,-4.24732 91.9105,-91.05862 131.43506,-129.11409 4.86555,-4.6847 12.06545,-12.11764 15.99977,-16.51764 l 7.15331,-8 -10.4135,9.5 c -12.18931,11.12003 -20.37878,18.87478 -76.58603,72.52065 -50.87108,48.55287 -71.02906,67.54204 -74.9886,70.64061 l -2.98859,2.33874 2.29247,-3.23003 c 8.96693,-12.63417 142.2991,-176.16268 143.68472,-176.22565 1.86975,-0.085 17.96735,17.43182 26.61875,28.96552 9.14043,12.18564 17.88125,24.91398 17.88125,26.03859 0,0.37192 -4.3875,3.73327 -9.75,7.46967 -25.97885,18.10116 -147.49113,102.2603 -160.25,110.98881 l -14.5,9.91963 z m -47.95492,-5.67796 c -13.03817,-17.61159 -38.42482,-57.31876 -37.34008,-58.4035 0.82222,-0.82221 18.21367,17.49877 24.15851,25.44973 8.25724,11.04368 19.23402,33.97325 18.0147,37.63119 -0.23664,0.70992 -2.38153,-1.36587 -4.83313,-4.67742 z m 39.04353,-10.22656 c 0,-4.20655 66.15845,-172.24151 70.30817,-178.57479 1.20027,-1.83183 3.07643,-2.67826 7.88348,-3.5566 7.28645,-1.33139 19.33236,-1.89601 20.28307,-0.95073 0.84717,0.84233 -5.2256,12.85761 -29.64489,58.65396 -52.43967,98.34619 -68.82983,127.97575 -68.82983,124.42816 z M 460.34172,314.75 c 13.38295,-26.64027 70.41599,-132.36555 81.32143,-150.75 9.41684,-15.87495 10.6809,-17.32607 14.4385,-16.57501 4.27904,0.85529 26.86123,12.07565 28.95101,14.38484 1.61758,1.78739 0.42363,3.45316 -27.07901,37.78 -15.82417,19.7506 -34.13684,42.43517 -40.69484,50.41017 -24.48584,29.77657 -59.77039,72 -60.16771,72 -0.22631,0 1.22747,-3.2625 3.23062,-7.25 z m 2.97348,-47.41621 c 2.66222,-11.24992 29.02627,-88.28534 33.39457,-97.5785 3.35995,-7.14798 11.015,-15.34688 11.015,-11.79755 0,2.74309 -42.67218,110.72162 -44.10656,111.60812 -0.59958,0.37056 -0.71598,-0.48693 -0.30301,-2.23207 z"
       id="path345" />
    <path
       style="fill:#030303"
       d="m 447.72477,764.70955 c 2.31369,-1.167 2.55281,-1.96703 3.20865,-10.73526 1.01011,-13.50451 0.19759,-20.4658 -2.54349,-21.79165 -1.65568,-0.80085 0.42321,-1.06284 8.83484,-1.11341 8.57368,-0.0515 11.76965,0.31954 14.48928,1.68232 7.33046,3.67323 6.27088,11.24976 -2.01749,14.42601 -2.45949,0.94252 -3.73414,1.73815 -2.83257,1.76806 3.02979,0.10051 5.97318,3.53513 7.76781,9.06421 1.19798,3.69082 2.57039,5.89501 4.18749,6.72543 2.17674,1.11779 1.86205,1.23666 -3.30934,1.25 -6.52273,0.0168 -7.10681,-0.57278 -8.22944,-8.30734 C 466.4823,752.17856 463.88187,749 460.18096,749 c -2.51744,0 -2.54076,0.0749 -2.25,7.2242 0.26686,6.56151 0.52314,7.33987 2.79381,8.48525 2.19363,1.10653 1.39708,1.26107 -6.5,1.26107 -7.89682,0 -8.69356,-0.15457 -6.5,-1.26097 z m 19.01888,-20.46068 c 1.08962,-1.38522 1.98112,-3.60336 1.98112,-4.92918 0,-3.49173 -4.39051,-7.52346 -7.76912,-7.13427 -2.62003,0.30181 -2.74312,0.57414 -3.03235,6.70925 -0.16581,3.51707 -0.095,6.93275 0.15737,7.5904 0.76246,1.98695 6.50758,0.50394 8.66298,-2.2362 z m 20.8321,20.54572 c -0.90697,-0.71202 -1.95083,-2.31035 -2.31969,-3.55183 -0.75823,-2.55196 2.67875,-6.48223 8.26066,-9.44625 2.25996,-1.20005 3.20805,-2.41988 3.20805,-4.12755 0,-5.10636 -5.35363,-6.0925 -6.57861,-1.21178 -0.66037,2.63111 -3.70446,3.51186 -4.98373,1.44195 -1.29203,-2.09054 3.20329,-5.15916 8.22889,-5.61724 7.18693,-0.65509 8.32614,0.64421 9.4426,10.76962 0.60425,5.4801 1.46232,8.84654 2.44219,9.58139 1.24164,0.93117 0.84583,1.25761 -2.22286,1.8333 -4.80506,0.90143 -6.26104,-0.88491 -5.58802,-6.85593 0.59345,-5.2651 -0.62201,-6.27788 -4.17766,-3.48101 -2.0606,1.62087 -2.60252,2.81944 -2.36753,5.23637 0.27099,2.78734 0.62877,3.11085 3.23148,2.92191 2.51846,-0.18283 2.72772,-0.0176 1.5,1.18419 -2.17142,2.12562 -6.21048,2.78724 -8.07577,1.32286 z m 24.34265,-2.42814 c 1.5915,-1.78482 1.5915,-2.40864 0,-10.34545 -1.51512,-7.55584 -1.95714,-8.50871 -4.19363,-9.04021 -2.18392,-0.51901 -1.90667,-0.745 2.19282,-1.78746 5.87623,-1.49426 5.80718,-1.4979 5.80718,0.30667 0,1.98924 0.60772,1.89228 2.97456,-0.47456 2.59056,-2.59056 6.86105,-3.6092 9.14674,-2.18176 1.4719,0.91922 2.5203,0.66064 5.48862,-1.35371 7.80059,-5.29362 11.02938,-2.92013 13.3855,9.8397 0.99657,5.39704 1.70618,6.99443 3.38284,7.61512 2.2706,0.84055 2.31515,0.82505 -7.62826,2.65251 -2.91219,0.53522 -3.0624,0.4545 -1.44516,-0.77668 1.71719,-1.30726 1.72579,-1.76117 0.17722,-9.3473 -1.77669,-8.7036 -3.20499,-11.01342 -6.2188,-10.05688 -3.08843,0.98023 -4.13691,4.48365 -3.17984,10.62515 1.33905,8.59259 1.8381,9.95262 3.68563,10.04436 1.95361,0.097 -1.29219,1.19626 -6.64099,2.2491 -2.95614,0.58188 -3.21466,0.47423 -2.09652,-0.87305 1.64768,-1.98533 -0.40436,-14.46589 -2.88143,-17.52495 -3.85512,-4.76087 -7.6281,1.53747 -6.17744,10.31216 1.15396,6.98001 1.92089,8.72942 3.88432,8.86036 0.90365,0.0603 -0.31625,0.49477 -2.71091,0.96559 -2.39465,0.47082 -5.31965,1.15632 -6.5,1.52333 -2.04336,0.63537 -2.06502,0.57641 -0.45245,-1.23204 z m -101.84054,-2.29279 c -8.11486,-4.94815 -5.85314,-17.51556 3.61086,-20.06395 10.15871,-2.73546 18.83754,6.28432 14.61294,15.18701 -3.08182,6.49446 -11.76167,8.8173 -18.2238,4.87694 z M 420.73573,757.75 c 3.23097,-5.29918 2.32018,-15.64148 -1.5068,-17.11003 -4.13651,-1.58733 -7.50416,3.83158 -7.50416,12.07499 0,5.69725 1.42113,8.28504 4.54988,8.28504 1.72426,0 3.0831,-0.98994 4.46108,-3.25 z m -26.82211,0.53625 c -1.27113,-0.24276 -2.55592,-1.07923 -2.85507,-1.85883 -0.39784,-1.03674 -1.56048,-1.2549 -4.32867,-0.81225 -6.66332,1.06551 -10.29586,-5.36259 -5.26911,-9.32415 0.84373,-0.66493 3.52058,-1.50687 5.94857,-1.87097 5.08574,-0.76265 7.31543,-2.56827 7.31543,-5.92409 0,-3.39718 -3.92526,-4.49416 -5.82786,-1.62869 -1.96137,2.95397 -5.41635,2.8728 -4.99169,-0.11727 0.2889,-2.03417 0.86332,-2.24795 5.98817,-2.22863 4.1267,0.0155 6.23478,0.53373 7.75,1.90498 2.49448,2.25748 2.57427,4.32425 0.51047,13.22316 -1.47536,6.36166 -1.46374,6.85199 0.19113,8.06206 1.65771,1.21214 1.64711,1.28037 -0.17909,1.15225 -1.06762,-0.0749 -2.98115,-0.33481 -4.25228,-0.57757 z M 391.08275,751.75 c 0.77225,-1.2375 1.68558,-3.46512 2.02962,-4.95027 0.6162,-2.65993 0.57688,-2.68391 -2.63103,-1.60491 -1.79111,0.60245 -3.81907,1.53517 -4.50657,2.07272 -1.32627,1.03698 -1.70227,4.94686 -0.58333,6.06579 1.39657,1.39657 4.34332,0.57678 5.69131,-1.58333 z m 164.39202,1.58772 c 1.76212,-0.71103 1.56126,-3.57695 -0.80837,-11.53372 -1.51623,-5.09123 -2.63561,-7.13372 -4.25,-7.75483 -2.16869,-0.83438 -2.16418,-0.85398 0.4316,-1.87324 6.43607,-2.52718 6.20315,-2.79674 10.3786,12.01143 1.25667,4.45674 2.07911,5.76339 3.80092,6.03873 1.5228,0.24352 0.46177,0.87665 -3.45666,2.06264 -5.20461,1.57528 -9.03298,2.23405 -6.09609,1.04899 z m -187.44786,-2.2215 c -2.85883,-0.92324 -5.54511,-2.02586 -5.96952,-2.45027 -0.42441,-0.42441 -0.07,-0.50239 0.78765,-0.17329 2.32169,0.89091 3.25265,-0.86375 7.24232,-13.65013 4.08103,-13.07921 4.42001,-16.27452 1.88741,-17.79108 -1.3111,-0.78511 -0.62141,-0.8909 2.75,-0.42183 2.475,0.34436 4.82166,0.91272 5.2148,1.26304 0.39314,0.35031 -1.29436,7.30163 -3.75,15.44737 -2.45564,8.14574 -4.4648,15.42922 -4.4648,16.18551 0,0.75629 0.7875,1.83376 1.75,2.39436 2.44988,1.42693 0.62623,1.1579 -5.44786,-0.80368 z m 202.44786,-2.16904 c 1.82407,-1.96588 1.56049,-4.15055 -1.38997,-11.52066 -1.71498,-4.28394 -3.37928,-6.87104 -4.75,-7.38372 -1.90526,-0.7126 -1.73121,-0.94834 1.79351,-2.42912 2.14695,-0.90196 3.99308,-1.52153 4.10252,-1.37681 0.10944,0.14472 0.64373,1.09172 1.18732,2.10445 0.88903,1.65631 1.11751,1.52944 2.27406,-1.26272 1.53675,-3.71004 5.4307,-5.10904 7.75394,-2.78579 2.23594,2.23594 0.88909,5.12626 -1.98353,4.25662 -4.68012,-1.41683 -5.22937,-1.17128 -5.48143,2.45057 -0.33988,4.88355 3.77915,14.59124 6.02775,14.20616 3.13276,-0.53648 1.77575,0.58485 -2.53417,2.09406 -2.3375,0.81853 -5.15,1.82706 -6.25,2.24118 -1.64434,0.61906 -1.77772,0.51339 -0.75,-0.59422 z m -220.72944,-4.06322 c -1.36369,-0.54409 -3.24783,-1.68465 -4.18698,-2.53457 -0.93916,-0.84992 -2.18591,-1.24967 -2.77057,-0.88833 -1.32806,0.82079 -1.25342,-0.0378 0.38782,-4.46106 l 1.29867,-3.5 0.72428,3.68463 c 0.87423,4.44751 3.53536,7.09358 6.68354,6.64573 3.5875,-0.51035 3.3425,-3.38381 -0.71021,-8.3296 -3.9298,-4.7958 -4.703,-8.67344 -2.22383,-11.15262 2.08655,-2.08654 7.1762,-1.97787 10.47235,0.22361 1.5424,1.03016 3.19937,1.75378 3.68214,1.60804 0.48277,-0.14573 0.60142,0.7667 0.26365,2.02762 -0.33776,1.26092 -0.62026,2.65665 -0.62777,3.10161 -0.008,0.44496 -0.46365,0.5309 -1.01365,0.19098 -0.55,-0.33992 -1,-1.42173 -1,-2.40403 0,-2.34787 -3.11143,-5.09597 -5.76972,-5.09597 -3.411,0 -3.59655,1.84344 -0.56601,5.62351 1.55965,1.94539 3.68185,4.58677 4.71599,5.86973 2.50365,3.10605 1.48577,7.00756 -2.34509,8.98857 -3.35138,1.73307 -3.63772,1.74949 -7.01461,0.40215 z m -18.52056,-7.94478 c -3.3,-1.62928 -5.21339,-2.74659 -4.25199,-2.4829 2.13268,0.58493 3.66317,-1.64818 7.38214,-10.77112 2.35815,-5.78474 2.55827,-6.95387 1.32396,-7.73468 -1.99355,-1.26109 0.0815,-1.18263 3.89667,0.14735 1.73207,0.6038 3.14922,1.482 3.14922,1.95156 0,0.46956 -1.575,4.43594 -3.5,8.81418 -3.8209,8.6903 -4.09963,10.1368 -2.3,11.93643 1.6857,1.6857 1.08804,1.49059 -5.7,-1.86082 z m 258.20486,-0.72536 c -3.32831,-3.474 -4.28061,-7.93926 -2.70886,-12.70169 1.31138,-3.97354 5.91858,-7.50208 9.80366,-7.50839 4.11275,-0.007 9.20034,3.54788 9.20034,6.42803 0,0.14751 -2.925,1.51133 -6.5,3.03073 -3.69065,1.56855 -6.5,3.38186 -6.5,4.19547 0,2.37827 4.72083,6.34203 7.55334,6.34203 1.66863,0 3.71466,-1.14589 5.54545,-3.10576 3.10466,-3.32354 3.91477,-2.78631 1.34051,0.88897 -4.01978,5.73903 -13.34085,7.01654 -17.73444,2.43061 z m 6.76121,-10.89903 c 4.00244,-1.90863 4.37769,-3.24122 1.6164,-5.74016 -2.89838,-2.623 -6.51056,-1.70265 -6.90704,1.75984 -0.32284,2.81933 0.30977,5.66553 1.25926,5.66553 0.2736,0 2.08772,-0.75835 4.03138,-1.68521 z m -279.31113,5.25087 c -3.50356,-1.8406 -3.97205,-2.38022 -2.41905,-2.78634 1.1646,-0.30455 3.47533,-3.54654 5.84506,-8.20072 l 3.91905,-7.69705 -2.36078,-1.94077 C 319.67074,708.13773 319.64343,708 321.47913,708 c 2.84729,0 7.24564,3.78761 7.24564,6.23953 0,1.15191 -1.60782,5.01945 -3.57293,8.59453 -1.96511,3.57508 -3.35724,7.32495 -3.09362,8.33305 0.59498,2.27522 0.21267,2.23082 -5.17851,-0.60145 z M 614.1339,728.7862 C 615.34276,721.04761 615.85465,708 614.9494,708 c -2.15648,0 -6.11843,4.23785 -6.78939,7.26219 -0.62827,2.83192 -0.81712,2.98709 -1.50649,1.23781 -1.63874,-4.15829 -0.94345,-5.128 6.49593,-9.05988 4.08357,-2.15825 7.64045,-3.7027 7.90418,-3.43211 0.26373,0.27059 0.11574,5.44199 -0.32886,11.49199 -0.4446,6.05 -0.6683,11.14568 -0.49711,11.32374 0.17119,0.17805 1.68973,-0.38911 3.37454,-1.26035 3.41674,-1.76687 5.12257,-4.31911 5.12257,-7.66432 0,-2.85781 0.81349,-2.0362 1.96732,1.98699 l 0.90561,3.15768 -8.98857,4.51434 -8.98857,4.51433 z m -64.40913,-0.48562 c 0,-2.51932 3.30595,-10.20401 4.60406,-10.70214 2.4587,-0.94349 2.71663,2.1466 0.48111,5.76376 -2.30839,3.73505 -5.08517,6.43168 -5.08517,4.93838 z m -246.25,-4.86631 c -4.38874,-2.28455 -6.4932,-4.04043 -3.4369,-2.86762 1.72786,0.66305 3.76941,-1.76082 7.62301,-9.05056 2.04792,-3.87399 2.96346,-6.78008 2.59656,-8.24194 -0.56571,-2.25396 -0.56032,-2.25498 2.9854,-0.56414 3.13344,1.49423 3.47972,2.02358 2.93779,4.49096 -0.52951,2.41083 -0.36174,2.7009 1.2149,2.10062 1.00608,-0.38305 0.18411,0.75181 -1.82661,2.52191 -4.63026,4.07616 -8.23245,11.00371 -6.68884,12.86364 1.59263,1.919 -0.0381,1.54102 -5.40531,-1.25287 z m -10.5,-6.17965 c -1.88231,-0.9368 -3.25,-2.38278 -3.25,-3.43605 0,-1.32159 -0.75903,-1.81857 -2.77749,-1.81857 -6.22603,0 -9.39542,-5.72357 -5.24787,-9.47705 1.64851,-1.49188 2.98252,-1.67299 8.07718,-1.0966 6.84172,0.77406 8.94818,-0.18645 8.94818,-4.08018 0,-2.87329 -2.5389,-4.11523 -5.1189,-2.50399 -2.77905,1.73555 -4.8811,1.39828 -4.8811,-0.78316 0,-2.61686 1.45039,-3.33864 5.09868,-2.53735 3.68647,0.80969 9.905,6.04758 9.89182,8.33192 -0.005,0.90553 -1.80523,4.477 -4,7.9366 -4.10048,6.46356 -4.93185,9.6633 -2.7405,10.54753 0.6875,0.27741 0.8,0.51113 0.25,0.51938 -0.55,0.008 -2.4625,-0.71287 -4.25,-1.60248 z m -2.19461,-7.28426 c 1.05815,-0.56631 2.61512,-2.36631 3.45994,-4 L 295.77613,703 h -4.00263 c -3.16812,0 -4.34483,0.52227 -5.64397,2.50501 -1.32269,2.01867 -1.40046,2.79524 -0.40061,4 1.46417,1.76421 2.45392,1.85539 5.05124,0.46535 z m 358.45687,1.01609 c 1.78013,-1.96702 1.7086,-2.18008 -3.09501,-9.21911 -2.70449,-3.96305 -6.6503,-9.40134 -8.76848,-12.08509 -3.38418,-4.28779 -4.22148,-4.82519 -6.90437,-4.43143 -2.39201,0.35107 -2.73171,0.21003 -1.56877,-0.65136 0.81641,-0.6047 4.90492,-3.72563 9.08558,-6.93539 9.19989,-7.06334 14.30844,-8.35644 18.27851,-4.62675 3.00582,2.82382 3.12669,6.14833 0.38485,10.58473 l -2.07544,3.35812 3.12182,-0.62436 c 2.55122,-0.51024 4.116,0.0604 8.5612,3.12189 4.12924,2.84392 6.04499,3.59426 7.95362,3.11523 1.38283,-0.34707 2.51423,-0.47374 2.51423,-0.2815 0,0.66489 -8.8306,6.68857 -9.80532,6.68857 -0.53811,0 -3.23066,-2.025 -5.98346,-4.5 -5.16101,-4.64019 -8.39925,-5.55331 -11.52565,-3.25 -1.54051,1.13494 -1.2743,1.78731 2.89217,7.0875 4.01859,5.11206 4.92026,5.7654 7.25556,5.25728 l 2.6667,-0.58022 -2.47455,1.74272 c -1.361,0.9585 -4.4024,3.20522 -6.75865,4.99272 -4.86065,3.68737 -6.44469,4.20903 -3.75454,1.23645 z m 1.92775,-23.53523 c 0.85799,-1.30947 1.55999,-3.236 1.55999,-4.28118 0,-2.44892 -3.40871,-6.78215 -5.83408,-7.4164 -2.13127,-0.55734 -8.16592,1.68576 -8.16592,3.03529 0,0.48702 1.81149,3.41521 4.02554,6.50709 4.27886,5.97536 5.6768,6.33341 8.41447,2.1552 z m -310.47422,21.48486 c -0.82557,-1.5426 -0.79342,-2.43885 0.12731,-3.54826 1.85358,-2.23343 5.34549,-1.32216 5.74439,1.49909 0.57124,4.04006 -3.9599,5.62139 -5.8717,2.04917 z m -72.31977,-8.38833 c -3.85524,-3.57292 -3.54723,-4.76522 3.72282,-14.41087 3.71165,-4.92448 3.90108,-5.46634 2.31612,-6.62529 -1.48274,-1.08421 -1.12396,-1.24452 2.54445,-1.13689 2.34882,0.0689 5.37352,-0.27123 6.72154,-0.75587 l 2.45096,-0.88117 -1.84209,2.81139 c -1.83823,2.80549 -1.83631,2.81638 0.91442,5.18245 3.34025,2.87316 2.61128,4.20978 -1.00401,1.84095 -1.4257,-0.93416 -2.9921,-1.55761 -3.48088,-1.38546 -1.45394,0.5121 -9.98935,11.94177 -9.98935,13.37663 0,0.72763 1.00013,2.02349 2.22251,2.87968 2.18286,1.52893 2.18546,1.5567 0.14602,1.5567 -1.14207,0 -3.26719,-1.10351 -4.72251,-2.45225 z m -19.39251,-16.13875 -4.52605,-4.591 2.67821,-2.659 2.67821,-2.659 -0.65213,4.13981 c -0.54235,3.44291 -0.28655,4.50539 1.51955,6.31149 4.78527,4.78527 7.47362,0.34667 4.50232,-7.43358 -2.06587,-5.4094 -1.31091,-9.24128 2.07431,-10.52834 3.43503,-1.306 6.73284,0.17488 10.03729,4.50724 2.74561,3.59968 2.75026,3.63234 0.79624,5.58637 -1.95403,1.95402 -1.96326,1.94616 -1.57917,-1.34383 0.46935,-4.0204 -2.56379,-8.42072 -5.12653,-7.4373 -2.14424,0.82282 -2.08933,3.04369 0.22743,9.19814 2.08133,5.52905 1.55273,8.66115 -1.76104,10.43463 -3.697,1.97857 -6.26285,1.14625 -10.86864,-3.52563 z m 424.02935,-4.02486 c -4.65796,-4.94119 -6.68546,-6.44781 -8.00974,-5.95197 -1.07944,0.40416 -0.55991,-0.56059 1.32798,-2.46601 l 3.1011,-3.1299 5.8913,6.17642 c 7.25711,7.60831 8.7557,8.49526 10.83705,6.41391 2.63923,-2.63923 1.78324,-5.93713 -3.07164,-11.83432 -3.68148,-4.47185 -5.07714,-5.51778 -6.75,-5.05855 -1.81371,0.49789 -1.71616,0.2211 0.69685,-1.9774 1.54317,-1.40597 3.19664,-2.55632 3.67436,-2.55632 0.47773,0 3.66816,3.15 7.08983,7 3.42168,3.85 6.93299,7 7.80292,7 1.1705,0 0.88758,0.6941 -1.08831,2.66999 -2.14903,2.14903 -2.95137,2.43646 -4.11212,1.47312 -1.18402,-0.98264 -1.5655,-0.69985 -2.13142,1.58001 -0.90727,3.65511 -4.36914,7.27688 -6.95559,7.27688 -1.2513,0 -4.5252,-2.60879 -8.30257,-6.61586 z M 228.13165,665.22938 c -5.94092,-6.45116 -10.17284,-11.16688 -9.40427,-10.47938 2.77822,2.48518 5.27372,1.08691 15.13091,-8.47808 9.2582,-8.98376 9.97976,-9.95929 9.43066,-12.75 -0.51124,-2.59832 0.7882,-1.551 9.27018,7.47159 l 9.86478,10.49351 -2.09957,3.22149 -2.09957,3.22149 -0.52858,-4.715 c -0.5712,-5.09512 -3.08021,-9.66767 -6.22962,-11.35318 -1.68086,-0.89957 -2.70869,-0.33509 -6.90199,3.7906 l -4.92703,4.84758 2.25852,1.83432 c 1.4878,1.20835 3.3852,1.70278 5.56014,1.44887 l 3.30161,-0.38545 -4.70623,4.77809 c -4.81313,4.88661 -6.32946,5.56615 -4.4077,1.97529 1.14543,-2.14025 0.10957,-6.39732 -1.85155,-7.60936 -1.29028,-0.79743 -7.3165,3.66302 -9.54604,7.06573 -2.19231,3.34589 -1.19014,5.89562 3.71343,9.44775 2.89215,2.09507 5.24813,2.95394 8.16508,2.97656 3.89382,0.0302 3.9994,0.10931 2.09996,1.57328 -4.98381,3.8412 -4.71244,3.98243 -16.09312,-8.3757 z m 472.41872,4.18788 c 0.93413,-1.82554 0.28005,-2.86143 -5.29652,-8.38844 -4.8267,-4.78379 -6.86092,-6.17531 -8.42832,-5.76542 -1.68327,0.44019 -1.90116,0.23217 -1.17604,-1.12274 0.48952,-0.91467 1.8483,-2.53026 3.01952,-3.5902 l 2.12949,-1.92716 7.37746,7.32821 c 5.04848,5.01479 7.87803,7.13613 8.96313,6.71974 2.29773,-0.88172 2.07274,-0.55766 -3.03439,4.37054 -2.54104,2.45202 -4.14049,3.52098 -3.55433,2.37547 z m 10.76479,-11.43713 c -0.2879,-0.81407 -1.90965,-5.86763 -3.60388,-11.23013 -1.69423,-5.3625 -3.49773,-9.75 -4.00778,-9.75 -1.84783,0 -4.11908,6.0769 -3.48448,9.32299 l 0.62109,3.17701 -2.03543,-2.5 c -1.11949,-1.375 -2.03048,-2.95 -2.02442,-3.5 0.006,-0.55 2.60684,-3.8721 5.77951,-7.38244 l 5.7685,-6.38245 2.84876,9.38245 c 1.56682,5.16034 3.2324,10.42784 3.70129,11.70555 l 0.85254,2.3231 2.62274,-3.11695 c 2.20872,-2.62491 2.5357,-3.78093 2.07131,-7.32311 l -0.55145,-4.20615 2.36195,2.93653 2.36195,2.93653 -2.92758,3.56347 c -8.03059,9.7749 -9.83178,11.52198 -10.35462,10.0436 z M 678.0864,646.5 c -1.40923,-3.67237 2.65128,-6.91566 5.31869,-4.24825 2.22293,2.22293 0.82519,5.74825 -2.27909,5.74825 -1.3552,0 -2.72302,-0.675 -3.0396,-1.5 z M 239.35963,539.92742 c -3.75831,-2.95629 -3.29847,-4.22229 2.24935,-6.1927 3.94943,-1.40271 8.35138,-1.73472 23,-1.73472 9.96369,0 18.12066,0.1125 18.12661,0.25 0.006,0.1375 0.65943,2.3875 1.45217,5 l 1.44135,4.75 H 263.8118 c -20.55779,0 -21.96942,-0.11965 -24.45217,-2.07258 z m 100,0 c -3.75831,-2.95629 -3.29847,-4.22229 2.24935,-6.1927 C 345.55695,532.33253 349.95839,532 364.57044,532 h 18.07724 l 1.13988,4.25 c 0.62693,2.3375 1.34583,4.5875 1.59756,5 0.25173,0.4125 -9.40819,0.75 -21.46647,0.75 -20.66589,0 -22.07538,-0.11895 -24.55902,-2.07258 z m 100.86514,0.87763 c -5.0694,-2.87467 -4.5601,-5.02875 1.72319,-7.28819 4.22884,-1.52068 8.60295,-1.92821 22.97675,-2.14075 l 17.75356,-0.26251 1.07864,4.00574 c 0.59325,2.20317 1.32685,4.65261 1.63023,5.44321 0.4695,1.22347 -2.702,1.43292 -21.30538,1.40704 -14.39825,-0.02 -22.53949,-0.41743 -23.85699,-1.16454 z m 97.95455,-1.2596 c -1.35,-1.35 -2.45455,-2.84178 -2.45455,-3.31506 0,-0.47329 2.8125,-1.82874 6.25,-3.01212 5.37469,-1.85026 8.3841,-2.14234 21.48821,-2.08555 l 15.23822,0.066 1.06116,4.15062 c 0.58363,2.28285 1.24981,4.71313 1.4804,5.40063 0.32634,0.973 -4.12664,1.25 -20.09483,1.25 -20.44704,0 -20.52209,-0.008 -22.96861,-2.45455 z m 44.54632,-3.04182 c -1.07562,-4.48369 -1.09115,-7.93826 -0.0843,-18.75 l 1.23425,-13.25363 4.31469,-4.37694 c 2.3989,-2.43351 4.8075,-4.07237 5.42459,-3.69098 1.37246,0.84822 1.40963,5.66268 0.12403,16.06792 -0.54362,4.4 -1.26514,11.56806 -1.60337,15.92902 -0.53806,6.93767 -0.96765,8.28172 -3.43593,10.75 -1.55154,1.55154 -3.23373,2.82098 -3.73819,2.82098 -0.50447,0 -1.51056,-2.47337 -2.23577,-5.49637 z m 83.44897,2.74637 c -0.32354,-1.5125 -0.99856,-3.76491 -1.50005,-5.00536 -0.58227,-1.44025 -0.34901,-7.76494 0.6454,-17.5 1.49615,-14.647 1.67406,-15.36225 4.53805,-18.24464 l 2.98085,-3 1.94296,2.36078 c 2.26574,2.753 2.44221,7.06623 0.91442,22.35 -1.53787,15.38461 -1.83249,16.57941 -4.75692,19.29109 -3.41534,3.16689 -4.04046,3.13384 -4.76471,-0.25187 z m -429.17106,-9.38939 c 0.30311,-1.29834 1.11765,-8.78296 1.81009,-16.63251 1.49017,-16.89281 2.2957,-18.31592 7.44383,-13.15084 l 3.41151,3.42274 -1.17076,12.38403 -1.17077,12.38403 -3.05134,1.24618 c -7.04334,2.87653 -7.87248,2.91602 -7.27256,0.34637 z M 337.06559,528.75 c 0.30988,-1.7875 1.11391,-9.41965 1.78674,-16.96034 1.40168,-15.70921 2.2012,-16.93915 7.52861,-11.58169 l 3.27357,3.29203 -1.01832,10.5 c -1.46876,15.14455 -1.244,14.58458 -6.58459,16.40431 -5.96494,2.03246 -5.64361,2.13907 -4.98601,-1.65431 z m 99.96356,-0.5 c 0.30801,-2.0625 1.11596,-9.75557 1.79545,-17.09571 1.41057,-15.23745 2.17668,-16.37877 7.41481,-11.04632 l 3.33203,3.39203 -1.37013,12.5 c -0.75357,6.875 -1.39407,12.5702 -1.42333,12.656 -0.0731,0.21439 -9.30019,3.344 -9.85916,3.344 -0.24732,0 -0.19767,-1.6875 0.11033,-3.75 z M 547.84441,497.16802 545.8022,494.3 l 2.766,-2.65 2.76601,-2.65 h 17.02096 c 16.87493,0 17.04118,0.0215 19.37593,2.50673 l 2.35495,2.50674 -2.67768,2.7949 -2.67769,2.79489 -17.42203,0.21639 -17.42203,0.21639 z m -199.99604,-0.53645 -2.22503,-2.36844 3.12744,-2.63156 c 3.10521,-2.61286 3.2465,-2.63157 19.8764,-2.63157 16.57259,0 16.77369,0.0263 19.09759,2.5 l 2.34863,2.5 -2.34863,2.5 c -2.33317,2.48354 -2.46484,2.5 -20,2.5 -17.27369,0 -17.69898,-0.0507 -19.8764,-2.36843 z m 193.92896,-5.06824 C 540.07796,489.51572 543.39297,453 545.27823,453 c 0.66126,0 2.83225,0.68104 4.82442,1.51342 3.35298,1.40097 3.62254,1.82822 3.6278,5.75 0.003,2.33012 -0.52603,8.83307 -1.17589,14.451 -1.16483,10.06963 -1.24057,10.27232 -5.34297,14.29852 -3.63576,3.56822 -4.32218,3.89037 -5.43426,2.55039 z M 589.4413,489.108 c -2.96572,-3.28271 -3.5323,-4.58437 -3.17812,-7.30145 0.23706,-1.8186 0.8835,-7.89628 1.43654,-13.50594 C 588.69895,458.16491 592.33193,447 594.63079,447 c 0.55884,0 1.96884,1.0125 3.13334,2.25 2.34644,2.49355 2.36057,1.83978 -0.60982,28.23001 -1.7869,15.87566 -2.67115,17.20872 -7.71301,11.62799 z m 81.48513,1.60666 c -2.53629,-2.69976 -2.61051,-4.06472 -1.05517,-19.40606 L 671.01774,460 h 5.38796 5.38796 l -0.56254,4.75 c -0.3094,2.6125 -0.9904,8.78185 -1.51335,13.70967 -0.83124,7.83303 -1.30534,9.31421 -3.77024,11.77911 l -2.81944,2.81944 z M 241.528,490.9097 c -0.48783,-1.4635 2.6154,-32.66167 3.31877,-33.36503 0.61915,-0.61915 6.89496,1.29316 8.25007,2.51388 0.49442,0.44539 0.35228,5.90774 -0.32822,12.61352 -1.17491,11.57784 -1.27693,11.90722 -4.82502,15.57793 -3.66256,3.78915 -5.75057,4.65477 -6.4156,2.6597 z m 99.87211,0.3403 c -0.84402,-1.42991 2.82196,-33.75008 3.82466,-33.71913 2.40356,0.0742 7.52721,1.70413 8.05834,2.56353 0.31971,0.51729 0.0521,6.22017 -0.59471,12.67307 -1.14776,11.45089 -1.26233,11.82255 -4.77276,15.48253 -3.46231,3.60982 -5.58003,4.5849 -6.51553,3 z m 99.80958,-0.2744 c -0.34821,-0.56342 -0.38703,-2.25092 -0.0863,-3.75 0.30077,-1.49908 1.02589,-9.00488 1.61137,-16.67955 0.58549,-7.67467 1.21833,-14.10775 1.40632,-14.29574 0.18799,-0.188 2.44614,0.68055 5.0181,1.93011 l 4.67629,2.27192 -0.55538,6.27383 c -1.76702,19.96138 -1.38249,18.4893 -5.75298,22.02383 -4.3001,3.4776 -5.32134,3.83738 -6.31747,2.2256 z M 249.94344,455.20829 c -4.78834,-1.83919 -5.09607,-3.46902 -1.20319,-6.37247 2.30756,-1.72106 4.30608,-1.8538 24.17935,-1.60598 l 21.66388,0.27016 -2.05684,4.75 -2.05684,4.75 -18.12252,-0.0736 c -14.2796,-0.058 -19.03037,-0.42234 -22.40384,-1.71807 z m 99.95739,-0.075 c -4.46412,-1.8119 -4.79967,-2.24863 -3.4639,-4.50844 C 348.30714,447.46085 351.69359,447 373.073,447 h 21.47971 l -2.11244,5 -2.11244,5 -18.05153,-0.0559 c -14.81054,-0.0458 -18.82786,-0.37097 -22.37547,-1.81088 z m 99.57394,0.0956 c -5.57569,-1.8546 -5.97409,-3.51188 -1.5,-6.23978 2.97568,-1.81431 5.08118,-1.98188 24.94458,-1.9853 l 21.69458,-0.004 -2.0779,5 -2.07791,5 -18.11668,-0.0956 c -13.63293,-0.0719 -19.29226,-0.48664 -22.86667,-1.67557 z m 204.5,-0.009 c -4.92166,-1.8911 -5.28205,-3.26274 -1.61514,-6.14713 2.49113,-1.95952 3.88215,-2.07258 25.5,-2.07258 21.53181,0 22.98177,0.11663 24.86514,2 3.13482,3.13482 2.41071,4.50529 -3.33789,6.31738 -7.53724,2.3759 -39.15148,2.30791 -45.41211,-0.0977 z M 785.32914,425.75 c -1.07347,-8.80435 -1.54087,-25.24215 -0.65795,-23.1391 0.48742,1.16099 1.60548,2.38691 2.48457,2.72425 1.89061,0.72549 25.06176,-0.90362 26.629,-1.87222 0.59409,-0.36717 1.47011,-1.63404 1.9467,-2.81526 0.7402,-1.83456 0.87705,-1.6374 0.93862,1.35233 0.0396,1.925 0.32842,5.975 0.64173,9 0.52454,5.06437 0.46052,5.30199 -0.80821,3 -1.358,-2.46396 -1.54294,-2.49668 -12.82835,-2.26948 -16.50234,0.33221 -17.95048,0.6829 -17.95048,4.34691 0,5.13463 2.54175,9.63527 6.67235,11.81465 l 3.82765,2.01953 -5.18873,0.0442 -5.18872,0.0442 -0.51818,-4.25 z m -632.17879,-1.4221 c -1.16583,-1.8645 -10.11222,-3.15126 -22.7078,-3.26608 -6.11154,-0.0557 -6.87733,0.16068 -7.74394,2.18818 -0.66275,1.55054 -0.77036,-0.23697 -0.34617,-5.75 0.57552,-7.47982 1.37233,-11.41277 1.37233,-6.77366 0,2.95261 1.92666,3.41528 16.73005,4.01753 l 13.23004,0.53824 0.95657,-2.39106 c 0.88101,-2.20219 0.95572,-2.1146 0.94583,1.10895 -0.006,1.925 -0.31488,5.4229 -0.68661,7.7731 -0.56396,3.56551 -0.8538,3.98857 -1.7503,2.5548 z M 154.60776,404.5 c -0.3413,-2.67343 -0.92727,-3.13596 -5.38299,-4.249 -2.75,-0.68695 -8.66985,-1.53756 -13.15521,-1.89024 -7.91188,-0.62211 -8.23552,-0.56094 -10.84653,2.05007 l -2.69131,2.69131 0.71188,-4.30107 c 0.39153,-2.36559 0.86492,-4.56317 1.05198,-4.88351 0.18706,-0.32035 5.75154,-4.14535 12.36551,-8.5 6.61396,-4.35466 12.03401,-8.20005 12.04454,-8.54531 0.032,-1.04833 -15.59367,-3.12991 -17.92962,-2.38851 -1.19941,0.38068 -2.59738,1.66507 -3.10659,2.8542 -0.62828,1.46719 -0.72793,0.23371 -0.31004,-3.83794 0.69227,-6.74521 1.18447,-7.90785 2.01051,-4.74908 0.71071,2.71778 3.70659,3.66593 18.35488,5.80901 6.325,0.92537 11.85011,2.00055 12.27803,2.38931 0.42792,0.38875 -5.33416,4.70268 -12.80461,9.58651 -14.87553,9.72492 -14.86731,9.70176 -3.8856,10.95394 3.2517,0.37078 6.69219,0.89022 7.64553,1.15433 1.00765,0.27915 2.78926,-0.57572 4.25542,-2.04188 l 2.52206,-2.52206 -0.66614,4.20996 c -0.36637,2.31548 -0.98396,5.33496 -1.37242,6.70996 -0.69846,2.47231 -0.71053,2.46677 -1.08928,-0.5 z M 782.38105,393.93514 C 782.01662,390.94581 781.41351,387.375 781.0408,386 c -0.64885,-2.39372 -0.60219,-2.42463 1.09748,-0.72711 1.69941,1.69727 1.95241,1.67398 5.93081,-0.54587 4.09734,-2.28621 4.15122,-2.38832 3.83817,-7.27289 -0.17463,-2.72477 -0.66752,-5.31202 -1.09532,-5.74945 -0.42779,-0.43742 -2.7341,-0.88742 -5.12512,-1 -3.56743,-0.16796 -4.54602,0.18389 -5.45501,1.96131 -0.99253,1.94079 -1.21039,1.60547 -2.0953,-3.22508 l -0.98759,-5.39107 2.19275,2.05998 c 1.60351,1.50642 6.31631,2.86691 17.53792,5.06282 8.43985,1.65157 15.7477,3.38838 16.23966,3.85958 0.50981,0.4883 -3.79074,3.85062 -10,7.81837 -16.24883,10.38309 -18.39739,11.98306 -19.27401,14.35279 -0.63219,1.70897 -0.94161,1.0183 -1.46419,-3.26824 z m 21.62488,-20.00216 c -0.42964,-0.40114 -3.17272,-1.04638 -6.09574,-1.43388 l -5.31459,-0.70454 0.69593,3.85272 c 0.38275,2.119 0.8727,4.16486 1.08877,4.54638 0.21607,0.38151 2.64599,-0.70697 5.39982,-2.41885 2.75383,-1.71187 4.65544,-3.4407 4.22581,-3.84183 z m -645.78116,-7.58792 c -7.31447,-1.54676 -7.27075,-1.49063 -2.3133,-2.97005 7.67363,-2.28998 11.43982,-9.68806 6.98456,-13.72002 -3.15261,-2.85308 -6.75561,-2.08391 -9.81361,2.09501 -7.07279,9.66535 -10.74146,11.65425 -16.24626,8.8076 -2.06896,-1.0699 -3.39835,-2.78334 -4.17771,-5.38462 -0.98981,-3.30369 -0.84786,-4.5017 1.05843,-8.933 1.21085,-2.81469 1.90641,-5.59516 1.5457,-6.1788 -0.72106,-1.1667 1.26658,-1.21266 5.96219,-0.13787 l 3,0.68667 -2.5,0.80736 c -6.55016,2.11531 -10.11314,9.32667 -6.42857,13.01123 3.03978,3.03978 5.58028,1.71085 10.45658,-5.46982 4.76535,-7.01728 8.79275,-8.89613 14.21391,-6.63103 3.46996,1.44984 6.75808,6.51184 6.75808,10.40393 0,1.06117 -1.12557,4.14316 -2.50127,6.84887 -1.3757,2.70571 -2.28982,5.48198 -2.03139,6.16948 0.47306,1.25843 -0.28949,1.37281 -3.96734,0.59506 z m 617.5,-9.23411 c 0,-0.48898 3.59011,-6.82256 7.97802,-14.07463 l 7.97803,-13.18558 -3.09484,0.67974 c -1.70217,0.37386 -6.07978,1.68253 -9.72803,2.90816 -5.78222,1.94254 -6.77028,2.64186 -7.70184,5.45111 l -1.06866,3.22269 -1.09664,-4.30622 c -2.50981,-9.85528 -2.46697,-9.58999 -1.13935,-7.05622 1.59976,3.05314 4.80263,2.90564 16.20293,-0.7462 9.47803,-3.03609 11.85099,-4.61457 13.45478,-8.95002 0.82066,-2.21845 0.97942,-2.0488 2.04575,2.18597 l 1.15605,4.59107 -7.556,12.68836 c -4.15579,6.9786 -7.38826,12.85609 -7.18327,13.06108 0.20499,0.205 4.17079,-0.8542 8.81289,-2.35377 7.70032,-2.48749 8.53189,-3.01021 9.48636,-5.96309 l 1.04618,-3.23661 1.13609,4.23661 c 0.62485,2.33013 1.46787,5.1366 1.87338,6.2366 0.70863,1.92224 0.6596,1.93196 -1.26101,0.25 -2.72703,-2.38817 -4.13125,-2.24646 -17.34082,1.75 -12.20208,3.69165 -14,4.02696 -14,2.61095 z M 172.20013,330.9542 c 1.03333,-4.11713 -2.40116,-6.19519 -20.60988,-12.47016 l -6.63453,-2.28634 -1.11547,2.4482 c -1.70126,3.73386 -1.33808,7.80139 0.9571,10.71924 1.13992,1.44917 1.83019,2.63486 1.53393,2.63486 -1.30022,0 -7.60651,-3.44617 -7.60651,-4.1567 0,-0.43245 1.08109,-3.2308 2.40241,-6.21856 1.32133,-2.98775 4.07131,-9.97558 6.11107,-15.52851 C 149.27802,300.5433 151.27978,296 151.68662,296 c 0.40684,0 2.19213,0.50632 3.96732,1.12515 l 3.22763,1.12516 -4.01209,1.79626 c -3.54667,1.5879 -7.14471,5.97911 -7.14471,8.71976 0,1.46797 23.18536,10.23367 27.06816,10.23367 0.94483,0 2.0016,-0.73941 2.34839,-1.64313 0.34679,-0.90372 0.83124,-1.44242 1.07655,-1.1971 0.43265,0.43265 -5.22005,15.83752 -6.17865,16.83818 -0.26236,0.27387 -0.18995,-0.64582 0.16091,-2.04375 z m 592.57738,-14.17818 c -8.10112,-4.33813 -11.53531,-15.67821 -7.1974,-23.7667 C 759.9571,288.57715 766.5858,285 772.42189,285 c 16.44452,0 24.08372,21.62792 11.06632,31.33069 -4.31673,3.21755 -13.14155,3.42759 -18.7107,0.44533 z m 12.72745,-6.35377 c 9.66951,-4.81853 12.88606,-11.84691 7.76526,-16.9677 -3.06734,-3.06735 -7.52814,-3.19773 -14.75794,-0.43137 -11.28389,4.3176 -15.82944,12.0258 -10.33296,17.52227 3.41333,3.41334 10.32739,3.36417 17.32564,-0.1232 z m -593.35912,-8.6008 c 0.0884,-2.43122 -7.96176,-7.64967 -19.25733,-12.48335 -5.25364,-2.24818 -6.66743,-2.50463 -8.27456,-1.50096 -1.55812,0.97306 -1.24452,-0.1672 1.59883,-5.81333 C 160.1582,278.16072 161.8745,275 162.02676,275 c 0.15227,0 0.25911,1.23349 0.23743,2.74108 -0.036,2.50594 0.94712,3.23509 11.46058,8.49965 11.81879,5.9182 14.65157,6.67423 16.89572,4.50927 0.99948,-0.96421 -5.2654,11.93606 -6.31117,12.99559 -0.13332,0.13508 -0.20689,-0.73079 -0.16348,-1.92414 z M 745.61451,284.75 c -1.183,-2.3375 -3.05222,-5.52883 -4.15381,-7.09184 l -2.00291,-2.84184 2.11222,1.31911 c 2.71547,1.69584 4.9704,0.85533 17.5196,-6.53026 8.403,-4.94543 9.63516,-6.01606 9.63516,-8.37201 0,-2.24232 0.68329,-1.53214 4.02057,4.1788 3.79615,6.49618 4.76894,9.4492 2.02274,6.14023 -1.10175,-1.32754 -1.65311,-1.32434 -4.8925,0.0284 -5.5147,2.30284 -18.62154,10.17711 -20.62515,12.39108 -0.97252,1.07462 -1.50277,2.64562 -1.17833,3.4911 1.20645,3.14395 -0.37953,1.3933 -2.45759,-2.71275 z m -548.13816,-8.51075 c 0.28535,-1.94426 -0.27621,-3.36547 -1.92432,-4.87007 C 192.96039,269.0032 174.89342,258 173.60019,258 c -1.19674,0 -3.87542,5.54069 -3.87542,8.01608 0,1.16347 0.48646,3.02436 1.08102,4.13531 1.66664,3.11413 0.32075,3.36446 -3.01193,0.5602 l -3.01537,-2.53727 4.78473,-7.33716 c 2.63159,-4.03544 6.72079,-10.59966 9.0871,-14.58716 2.36631,-3.9875 4.5886,-7.23114 4.93842,-7.20808 0.34981,0.023 2.16268,0.85528 4.02858,1.84939 l 3.39255,1.80748 -4.05132,0.64784 c -2.80782,0.44899 -4.84668,1.59305 -6.64256,3.72733 -1.42517,1.69372 -2.59122,3.45163 -2.59122,3.90647 0,1.01618 14.01207,10.07975 20.32361,13.14613 4.48788,2.18038 4.66771,2.19127 6.64455,0.40225 2.96581,-2.68401 2.54456,-1.54995 -2.40811,6.48304 -5.36999,8.70987 -5.31002,8.64467 -4.80847,5.2274 z m 541.01908,-9.43706 c -4.53389,-1.20491 -9.24088,-6.30189 -10.88384,-11.78561 -4.1294,-13.78272 14.45721,-26.81423 26.0266,-18.24787 3.57647,2.64813 7.08658,8.05274 7.08658,10.9114 0,1.51953 0.77252,2.67011 2.1299,3.17224 2.01565,0.74564 1.92297,0.95846 -1.72785,3.96777 -4.49153,3.70231 -5.93816,4.05013 -4.32745,1.04049 5.39176,-10.0746 0.1647,-18.61777 -9.75658,-15.94624 -7.02582,1.89185 -15.31802,10.59959 -15.31802,16.08563 0,5.35304 4.90118,10 10.54705,10 1.34912,0 2.45295,0.45 2.45295,1 0,1.17877 -1.19195,1.14092 -6.22934,-0.19781 z M 203.21172,239.04593 c -9.60824,-7.74938 -11.82407,-8.81928 -14.24587,-6.87855 -2.02099,1.61955 1.18881,-2.93291 6.07555,-8.61694 l 3.39556,-3.94956 -0.44736,3.04807 c -0.40314,2.74677 0.22889,3.61559 6.3939,8.78935 9.33903,7.83744 12.31725,9.2285 16.26073,7.59506 3.99598,-1.65519 7.49553,-7.24378 6.64873,-10.61768 -0.76218,-3.03677 -9.44661,-11.60071 -15.26482,-15.05304 -3.54479,-2.10335 -4.54207,-2.30526 -6.42059,-1.2999 -1.68117,0.89973 -1.2987,0.0611 1.56709,-3.43626 2.08508,-2.54456 3.89944,-4.62648 4.03192,-4.62648 0.13248,0 0.0439,1.03049 -0.19689,2.28997 -0.3539,1.85133 1.30144,3.87954 8.64179,10.58834 4.99375,4.56411 9.34593,9.35972 9.67151,10.65692 0.95272,3.79593 -1.52977,9.44897 -6.2006,14.1198 -6.48692,6.48692 -9.04902,6.15118 -19.91065,-2.6091 z m 512.36131,1.04228 c -4.0182,-4.98701 -4.34514,-5.71469 -2.40057,-5.34296 1.7497,0.33448 2.73021,-0.3816 4.40174,-3.21462 2.78498,-4.7202 2.70742,-5.30611 -1.3033,-9.84572 l -3.37062,-3.8151 -4.19057,2.13787 c -3.71735,1.89645 -4.14206,2.46843 -3.76095,5.0651 0.23629,1.60997 0.37785,2.92722 0.31458,2.92722 -0.0633,0 -1.80094,-2.01687 -3.86148,-4.48193 l -3.74643,-4.48194 2.99309,0.59862 c 2.15996,0.43199 7.18643,-0.86549 18.05809,-4.66131 8.28575,-2.89297 15.38728,-4.93766 15.78117,-4.54376 0.3939,0.3939 -2.81914,7.58848 -7.14009,15.98796 -5.76931,11.21497 -7.67455,15.84433 -7.1722,17.42708 0.37623,1.1854 0.54123,2.12412 0.36667,2.08603 -0.17457,-0.0381 -2.41067,-2.66723 -4.96913,-5.84254 z M 724.22477,219 c 2.82198,-5.56891 2.55366,-5.7491 -4.72395,-3.1725 l -4.72396,1.6725 2.54643,3.25 c 1.40054,1.7875 2.95624,3.25 3.45711,3.25 0.50087,0 2.05084,-2.25 3.44437,-5 z m -478.7,-4.2 c 2.54366,-2.54366 0.96864,-5.31564 -8.49111,-14.94407 l -9.69111,-9.86392 -2.80889,2.69109 c -2.34624,2.24784 -2.80889,3.51581 -2.80889,7.69827 v 5.00719 l -2.51279,-3.4059 c -1.38204,-1.87325 -2.39454,-3.66362 -2.25,-3.97861 0.14453,-0.315 5.69676,-5.8306 12.33827,-12.25691 l 12.07548,-11.68419 3.42452,2.98427 3.42452,2.98427 -3.62852,-0.60425 c -3.82918,-0.63766 -8.37357,1.06296 -10.8662,4.0664 -1.1855,1.42844 -0.14844,2.83064 8.55407,11.56593 9.89127,9.92853 12.40463,11.34009 15.49065,8.69991 0.7975,-0.68228 -1.462,1.79272 -5.02111,5.5 -3.55911,3.70729 -6.91161,6.74052 -7.45,6.74052 -0.53839,0 -0.43889,-0.54 0.22111,-1.2 z m 447.2,-16.357 v -16.557 l -5.75,6.18207 c -7.29934,7.84783 -8.3047,9.65786 -7.10986,12.80052 0.89038,2.34187 -0.67108,1.20164 -9.14014,-6.6745 -0.275,-0.25575 0.5295,0.0709 1.78777,0.72585 3.46546,1.80388 5.45615,0.65302 12.47093,-7.20973 7.78912,-8.7307 9.11578,-11.08779 8.36198,-14.8568 -0.50541,-2.52704 -0.35536,-2.78178 1.16063,-1.97045 4.75681,2.54577 5.15113,3.98656 5.44156,19.88281 l 0.27713,15.16824 5.85156,-6.64744 c 5.21108,-5.91985 5.7926,-7.01078 5.31287,-9.96701 C 711.09292,187.4938 710.95353,186 711.07943,186 c 0.12591,0 2.12828,1.9353 4.44971,4.30067 l 4.22079,4.30067 -3.26258,-0.35758 c -3.02571,-0.33162 -3.9523,0.40307 -12.76258,10.11946 -5.225,5.76237 -9.8375,10.51298 -10.25,10.55691 -0.4125,0.0439 -0.75,-7.37078 -0.75,-16.47713 z m -426.08643,-9.36751 c -7.22298,-2.27609 -11.91357,-8.79627 -11.91357,-16.56052 0,-6.16304 2.43143,-11.09055 7.16424,-14.51898 7.60667,-5.51025 16.10469,-4.76136 22.1715,1.95387 4.26206,4.7176 5.43451,9.71568 3.75595,16.01135 -2.46464,9.24396 -12.91813,15.71715 -21.17812,13.11428 z m 14.77198,-5.2498 c 4.95961,-4.65932 1.78138,-14.84394 -7.04502,-22.57569 -6.00102,-5.25678 -13.68326,-3.88488 -15.12997,2.7019 -0.85922,3.912 2.45747,11.37259 7.28879,16.3955 5.86273,6.09522 10.85815,7.26244 14.8862,3.47829 z m 360.77183,-9.68861 c -7.3838,-4.50279 -10.73023,-11.94533 -8.58719,-19.09814 3.8989,-13.01339 18.77511,-16.77483 29.17696,-7.37738 11.70926,10.57861 4.06966,28.34603 -12.1833,28.3347 -3.45911,-0.002 -6.44431,-0.66262 -8.40647,-1.85918 z m 9.17679,-2.05568 c 5.83739,-3.55947 11.36583,-12.84731 11.36583,-19.09474 0,-1.97284 -0.92378,-4.00135 -2.57347,-5.65104 -5.00449,-5.00449 -12.4605,-1.31451 -18.51761,9.16438 -3.705,6.4097 -3.86286,11.63696 -0.45437,15.04545 2.947,2.94701 5.965,3.1059 10.17962,0.53595 z m -338.59487,-9.15484 c 0.82938,-1.5497 -0.18166,-4.27583 -5.2562,-14.17267 -5.65654,-11.03192 -6.57283,-12.28694 -9.18846,-12.5853 -2.63674,-0.30078 -2.17444,-0.72671 5,-4.60677 10.84538,-5.86537 14.77755,-7.06451 18.33445,-5.59119 2.85784,1.18375 5.07091,4.64965 5.07091,7.94156 0,2.70633 -3.58267,6.75893 -8.54723,9.66836 l -4.40096,2.57913 3.04084,6.02386 c 2.81633,5.57912 3.25684,5.99216 5.96645,5.59448 1.60908,-0.23616 2.81654,-0.32283 2.68325,-0.1926 -0.13329,0.13023 -3.27706,1.81699 -6.98615,3.74836 -5.47086,2.84873 -6.54996,3.14938 -5.7169,1.59278 z m 6.55462,-23.44475 c 1.91829,-7.64308 -5.19584,-13.4225 -11.15279,-9.06037 -1.89545,1.38799 -1.86459,1.57682 1.31152,8.02431 l 3.25265,6.60287 2.98286,-1.5425 c 1.64058,-0.84837 3.26317,-2.65931 3.60576,-4.02431 z m 292.40608,17.39976 c -4.05598,-1.60885 -8.96193,-7.02649 -10.06185,-11.11128 -1.37481,-5.10563 -0.32114,-9.94151 3.23605,-14.85207 6.31077,-8.71176 18.36738,-9.41569 25.75884,-1.50394 1.61855,1.73248 3.05734,2.40616 4.29794,2.01241 1.76524,-0.56027 1.78511,-0.40097 0.37192,2.98128 -2.93558,7.02583 -3.28228,7.21577 -4.033,2.20958 -1.46063,-9.74017 -9.1501,-13.20554 -15.68252,-7.06755 -10.18491,9.56992 -8.73797,26.45 2.26726,26.45 2.18726,0 4.8858,-0.48646 5.99675,-1.08102 1.11095,-0.59456 2.27545,-0.82547 2.5878,-0.51313 0.89145,0.89146 -6.36647,3.60118 -9.45707,3.53076 -1.53017,-0.0349 -3.90712,-0.50963 -5.28212,-1.05504 z m -23.36969,-11.02865 c -1.02833,-0.59745 -4.17833,-1.91753 -7,-2.93352 -3.02565,-1.08943 -4.2178,-1.86205 -2.90599,-1.88332 2.6042,-0.0422 3.91089,-2.28816 8.82828,-15.17392 3.64591,-9.5539 4.15493,-12.75463 2.32018,-14.58938 -0.61997,-0.61997 2.05823,0.0775 5.95156,1.55 4.18726,1.58364 6.2989,2.80548 5.16956,2.99122 -2.10505,0.34621 -5.17504,6.23595 -9.3801,17.9956 -3.08475,8.62662 -3.1878,10.03419 -0.8638,11.79835 2.10193,1.59559 0.51974,1.77844 -2.11969,0.24497 z M 344.12931,143.15541 C 338.40242,140.47163 335.2581,135.09994 335.2581,128 c 0,-7.43752 2.89123,-12.03603 9.70099,-15.42947 6.34079,-3.15976 10.02524,-3.23448 15.80379,-0.32053 8.55347,4.31326 11.31719,15.58494 5.95043,24.26854 -4.47304,7.23753 -14.81613,10.27711 -22.584,6.63687 z m 15.33409,-1.68489 c 4.55836,-3.1928 4.67662,-11.81592 0.28022,-20.43357 C 357.61713,116.86868 352.41207,112 350.0823,112 c -2.01609,0 -5.58783,1.97541 -7.07573,3.91334 -3.4135,4.44596 0.35222,18.80212 6.30227,24.02633 3.85789,3.38727 6.85835,3.83961 10.15456,1.53085 z M 559.58807,123.39289 552.33716,108.5 l -1.84973,6 c -3.61461,11.7248 -3.75461,13.24051 -1.48904,16.12072 2.05503,2.61255 2.05513,2.6184 0.0338,1.97685 -1.11503,-0.35389 -4.00284,-1.26363 -6.41737,-2.02164 -3.76382,-1.18159 -3.99049,-1.3923 -1.58903,-1.47706 3.30506,-0.11666 4.35218,-2.16767 7.77624,-15.23147 1.96251,-7.4876 2.09135,-9.04609 0.97136,-11.75 C 549.0632,100.40283 548.08672,99 547.60345,99 c -0.48327,0 -0.87868,-0.422686 -0.87868,-0.939302 0,-0.516616 2.00211,-0.257116 4.44913,0.576668 4.3091,1.468264 4.62224,1.867604 9.94996,12.689304 8.21102,16.67824 7.9733,16.49635 10.49458,8.03035 2.6986,-9.06138 2.67516,-11.84518 -0.11618,-13.80032 -2.73328,-1.91446 -2.75163,-1.91589 5.22251,0.40719 4.01572,1.16989 5.49576,1.92085 3.87244,1.96487 -1.44515,0.0392 -3.14173,0.69078 -3.77016,1.44801 -0.62844,0.75722 -2.7492,7.16972 -4.7128,14.25 -1.9636,7.08027 -3.95382,13.27503 -4.42272,13.76612 -0.48143,0.50421 -4.00891,-5.59008 -8.10346,-14 z m -180.1133,11.17345 c 2.78833,-2.08164 2.82084,-4.45443 0.20416,-14.89973 -3.28763,-13.12354 -3.85959,-14.46842 -6.53216,-15.35928 -2.09942,-0.6998 -1.27572,-1.12752 5.54713,-2.88043 7.59386,-1.95099 7.9086,-1.961641 6.02176,-0.20379 -1.09499,1.02014 -1.99089,2.31359 -1.99089,2.87434 0,2.20427 6.18792,25.45516 6.99351,26.27785 1.4873,1.51889 7.67388,-0.31541 10.45975,-3.10129 1.47258,-1.47258 2.92927,-3.93665 3.23708,-5.47571 0.90637,-4.53187 2.30966,-3.20575 2.30966,2.18265 0,4.61494 -0.20207,5.02707 -2.75,5.60858 -6.36281,1.45219 -22.17765,5.43938 -23.8929,6.0238 -1.42488,0.48549 -1.33343,0.24181 0.3929,-1.04699 z m 32.99932,-7.26862 c 2.27879,-0.81007 2.34263,-4.6763 0.27586,-16.70775 -2.08979,-12.165386 -3.03343,-14.515532 -5.89762,-14.68794 -1.66148,-0.100011 10.19558,-2.728352 12.81357,-2.840368 1.01616,-0.04348 0.88462,0.345267 -0.44606,1.318283 -1.76775,1.292612 -1.81148,1.941302 -0.69091,10.249995 1.83939,13.63861 3.34135,18.6418 5.99171,19.95911 2.09773,1.04263 1.84829,1.20049 -2.89021,1.82908 -9.06567,1.2026 -10.43505,1.33415 -9.15634,0.87959 z m 107.68132,-0.27642 c -7.37365,-1.66918 -13.44018,-8.48672 -13.42506,-15.08702 0.0334,-14.564881 13.48027,-22.920888 25.63985,-15.932801 2.26639,1.302491 3.44945,1.503639 4.23333,0.719762 1.72949,-1.729492 2.00919,-0.592084 1.29197,5.253889 l -0.67073,5.46702 -1.93464,-4.29373 c -5.4567,-12.110583 -16.57937,-10.381856 -19.5839,3.0438 -1.5608,6.97443 -0.6602,12.03394 2.82215,15.85448 3.88101,4.25793 7.79039,4.7181 12.56363,1.47886 4.79139,-3.25156 5.99014,-2.63969 1.44844,0.73931 -3.8007,2.8277 -7.97054,3.75574 -12.38504,2.75643 z m -79.28454,-4.06092 c 1.45536,-0.58178 2.90806,-2.04837 3.22821,-3.25908 0.7705,-2.91375 -1.30508,-25.939948 -2.44571,-27.132306 -1.7868,-1.867836 -8.24551,0.758667 -10.64497,4.328889 l -2.28363,3.397887 v -4.495483 -4.495479 l 11.26957,-0.643651 c 6.19826,-0.354008 14.00513,-0.929575 17.3486,-1.279037 l 6.07905,-0.635386 0.62057,3.824122 c 0.79753,4.914639 0.31845,5.280344 -2.5495,1.94615 -1.72622,-2.006846 -3.56303,-2.852259 -7.05129,-3.245436 l -4.717,-0.531675 0.008,5.880053 c 0.0111,8.605902 1.75913,22.394042 3.03377,23.929892 0.60714,0.73155 2.0837,1.52082 3.28126,1.75394 1.19756,0.23312 -0.52262,0.49009 -3.82262,0.57104 -3.3,0.081 -7.8,0.37132 -10,0.64526 -3.58165,0.44598 -3.72325,0.38744 -1.3539,-0.5597 z m 39.03723,0.293 c -10.13866,-0.31921 -10.27805,-0.35609 -8.07837,-2.13729 2.01117,-1.62855 2.33522,-3.1662 3.19326,-15.15257 0.92811,-12.965155 0.89537,-13.388345 -1.16509,-15.056798 -2.03541,-1.648181 -1.791,-1.698994 6.12342,-1.273033 15.68164,0.843999 18.74226,1.364233 18.7571,3.188267 0.008,0.922924 0.26592,2.803044 0.57424,4.178044 0.55532,2.476557 0.5395,2.473055 -1.68699,-0.37345 C 495.06704,93.355413 490.1508,91 485.88189,91 c -2.45597,0 -3.00411,0.484958 -3.53212,3.125 -0.34375,1.71875 -0.625,4.86875 -0.625,7 0,3.61754 0.1945,3.875 2.92742,3.875 1.99002,0 3.63655,-0.88059 5.14197,-2.75 l 2.21456,-2.75 -0.64198,3.375 c -0.35308,1.85625 -0.6775,5.00625 -0.72092,7 -0.0771,3.54056 -0.10174,3.56276 -1.05739,0.95282 -0.8533,-2.33039 -6.40447,-5.62034 -7.55015,-4.47466 -0.1992,0.1992 -0.63184,3.24997 -0.96144,6.77949 -0.76171,8.15701 0.32445,9.30769 8.17157,8.65695 4.35454,-0.36112 6.17469,-1.07371 8.61725,-3.37371 2.87186,-2.70423 3.05172,-2.75257 2.47787,-0.66589 -1.7923,6.51734 -1.5401,6.26076 -5.93615,6.0391 -2.30043,-0.11599 -8.82511,-0.35706 -14.49928,-0.53572 z m 4.81667,-35.966519 c 0,-1.564134 6.14345,-8.286861 7.5728,-8.286861 2.50424,0 1.53523,2.818329 -1.8228,5.301578 -4.4357,3.280178 -5.75,3.962537 -5.75,2.985283 z"
       id="path341" />
    <ellipse
       style="display:inline;fill:#2b0000;fill-opacity:0;stroke:#6b1740;stroke-width:13.872;stroke-miterlimit:4;stroke-dasharray:none;stroke-opacity:1"
       id="path2844"
       cx="467.11343"
       cy="424.13303"
       rx="387.81799"
       ry="387.81818" />
    <circle
       style="display:inline;fill:#702a44;fill-opacity:0;stroke:#6b1740;stroke-width:2.74778;stroke-miterlimit:4;stroke-dasharray:none;stroke-opacity:1"
       id="path4306"
       cx="467.9075"
       cy="425.06476"
       r="359.26459" />
    <path
       style="fill:#6a6a6a;stroke-width:0.627576"
       d="m 346.72972,684.38951 c -2.65524,-0.73408 -6.89057,-2.82179 -11.92393,-5.87762 -1.20808,-0.73345 -2.54953,-1.47717 -2.98099,-1.65272 -0.43145,-0.17555 -1.13748,-0.46282 -1.56893,-0.63837 -0.43146,-0.17555 -1.65999,-0.8522 -2.73007,-1.50367 -1.07008,-0.65146 -3.75297,-2.16442 -5.96197,-3.36214 -2.209,-1.19771 -5.0048,-2.7779 -6.21288,-3.51154 -1.20809,-0.73364 -2.54953,-1.47751 -2.98099,-1.65307 -0.43146,-0.17555 -1.13748,-0.46411 -1.56894,-0.64124 -0.43146,-0.17713 -2.19651,-1.1751 -3.92234,-2.2177 -1.72584,-1.04261 -3.84391,-2.23337 -4.70682,-2.64615 -0.86292,-0.41278 -1.71015,-0.89746 -1.88273,-1.07708 -0.17258,-0.1796 -1.67042,-1.03258 -3.32853,-1.89549 -3.90176,-2.03056 -5.42319,-3.69518 -5.86485,-6.41684 -0.43862,-2.70286 1.26914,-6.64377 3.19656,-7.37657 1.77614,-0.67529 2.4602,-1.61543 3.82005,-5.25012 0.67926,-1.81557 1.98766,-3.71168 3.24791,-4.70682 1.16073,-0.91656 3.84201,-4.20815 5.9584,-7.31464 5.06416,-7.43336 6.39902,-9.34932 6.77712,-9.72743 0.17259,-0.17258 0.5962,-0.77965 0.94137,-1.34904 1.87191,-3.08792 10.70477,-16.06539 11.55535,-16.97741 0.54789,-0.58747 1.31128,-1.4347 1.69643,-1.88273 0.38514,-0.44802 1.33182,-1.23821 2.10372,-1.75596 0.77191,-0.51774 2.29245,-1.71527 3.37898,-2.66117 1.08653,-0.94589 2.46973,-1.88275 3.07377,-2.0819 0.60404,-0.19916 1.09826,-0.62549 1.09826,-0.9474 0,-0.3219 0.26894,-0.58528 0.59766,-0.58528 0.49929,0 28.67362,-20.38738 31.31954,-22.66331 2.06635,-1.7774 7.53454,-5.20425 10.02549,-6.28286 6.28957,-2.72345 15.33176,-0.33696 20.3836,5.37981 0.62573,0.70809 2.18659,2.41706 3.4686,3.79773 1.282,1.38066 3.73534,4.20475 5.45186,6.27575 1.71652,2.071 3.26247,3.90666 3.43543,4.07925 0.17296,0.17258 2.14982,2.43145 4.39302,5.01972 2.24321,2.58825 4.36096,5.0093 4.70613,5.3801 0.34517,0.3708 1.75721,2.03962 3.13788,3.70851 1.38067,1.66888 2.94527,3.48396 3.47691,4.03352 0.53163,0.54956 2.4397,2.7341 4.24016,4.85452 1.80046,2.12043 3.96991,4.0301 4.82099,4.24371 2.59741,0.65191 4.72026,4.49797 4.72026,8.55188 0,1.92184 -0.29166,3.78593 -0.64814,4.14241 -1.00488,1.00487 -0.12323,2.45033 2.08855,3.42416 1.59572,0.70258 2.05257,1.31611 2.21123,2.96957 0.11114,1.15837 -0.23729,2.75139 -0.78447,3.58648 -0.54144,0.82634 -0.98444,1.82272 -0.98444,2.21415 0,0.39144 -0.44454,1.74282 -0.98787,3.00306 -0.54332,1.26025 -1.35114,3.13859 -1.79515,4.17409 -0.44402,1.0355 -1.05851,2.70111 -1.36555,3.70135 -1.24745,4.06386 -7.54507,6.1052 -10.98616,3.56109 -1.33744,-0.9888 -2.37077,-1.27699 -3.60606,-1.00567 -0.95229,0.20916 -2.4103,0.12916 -3.24002,-0.17778 -1.32973,-0.4919 -1.60106,-1.18288 -2.28879,-5.82882 -0.42913,-2.89893 -0.7922,-6.3368 -0.80683,-7.63971 -0.0209,-1.86152 -0.32905,-2.48694 -1.43863,-2.91982 -0.77663,-0.30298 -2.40048,-1.4492 -3.60856,-2.54716 -2.94382,-2.67547 -10.52202,-9.45415 -12.16975,-10.88583 -4.6438,-4.03486 -8.88551,-7.7694 -9.74269,-8.57778 -0.549,-0.51775 -1.90593,-1.76205 -3.01541,-2.76512 l -2.01721,-1.82375 -4.95081,5.27541 c -2.72294,2.90149 -6.40504,6.82867 -8.18244,8.72708 l -3.23163,3.45167 0.16051,4.36924 c 0.15955,4.34343 0.17602,4.38049 2.78935,6.27575 l 2.62884,1.90652 0.0384,8.33745 c 0.0302,6.5703 0.25317,8.66533 1.05189,9.88432 0.55745,0.85077 1.25345,1.54686 1.54667,1.54686 0.88037,0 9.6729,5.50794 10.7269,6.71969 2.55294,2.93503 1.74361,7.91881 -1.60234,9.86718 -2.79738,1.62894 -9.53492,5.30439 -13.5675,7.40134 -3.59414,1.86895 -4.30091,2.24285 -6.90333,3.652 -11.95175,6.47161 -14.31973,7.07902 -20.71,5.31234 z m 11.04599,-2.5906 c 11.82124,-6.32271 19.9613,-10.64639 25.35339,-13.46673 4.51767,-2.36297 6.21717,-4.64101 5.28148,-7.07938 -0.53417,-1.39203 -1.0119,-1.31194 -4.15176,0.69605 -4.07854,2.60829 -4.96609,3.12477 -8.03305,4.67456 -1.55325,0.78487 -4.59412,2.48996 -6.75749,3.78908 -2.16337,1.29912 -4.109,2.36204 -4.32362,2.36204 -0.21462,0 -1.76714,0.84723 -3.45004,1.88273 -1.6829,1.0355 -3.44462,1.88272 -3.91491,1.88272 -0.4703,0 -1.20666,0.42362 -1.63636,0.94137 -0.42969,0.51775 -1.72553,0.94136 -2.87964,0.94136 -2.72274,0 -5.14265,-1.02507 -14.37868,-6.0908 -2.071,-1.13589 -5.1775,-2.78964 -6.90333,-3.675 -3.01053,-1.54441 -5.40023,-2.83289 -15.06182,-8.12106 -9.92506,-5.43239 -12.0695,-6.58335 -15.15129,-8.13201 -1.77505,-0.89201 -4.25575,-2.31971 -5.51267,-3.17268 -2.53025,-1.71707 -3.13801,-1.28319 -2.76002,1.9704 0.20987,1.80657 2.4627,3.70271 7.73459,6.50998 1.38067,0.7352 4.20476,2.28339 6.27576,3.44041 2.071,1.15702 5.03629,2.76253 6.58954,3.56778 1.55325,0.80525 2.96551,1.60556 3.13836,1.77846 0.17285,0.1729 1.30248,0.83811 2.5103,1.47822 3.66353,1.9416 9.57992,5.17145 12.23725,6.6805 1.38066,0.78406 3.92235,2.18984 5.64818,3.12395 1.72583,0.93411 3.8439,2.08624 4.70682,2.56028 6.06531,3.33198 11.05419,3.80304 15.43901,1.45777 z m -0.14054,-7.49651 c 2.45858,-1.23067 5.34567,-2.75455 6.41575,-3.38639 1.07008,-0.63184 3.89417,-2.21319 6.27576,-3.5141 2.38158,-1.30091 6.02461,-3.3014 8.09561,-4.44552 2.07099,-1.14412 4.40087,-2.36139 5.17749,-2.70505 1.52072,-0.67292 1.90858,-2.78643 0.62758,-3.41975 -0.43146,-0.21331 -1.6317,-0.94644 -2.6672,-1.62918 -3.89498,-2.56805 -5.33439,-2.41645 -5.33439,0.56182 0,1.60175 -0.49494,2.14004 -3.60856,3.92456 -3.57679,2.04998 -10.04103,5.49423 -17.54227,9.34678 l -3.8925,1.99915 -4.26598,-2.45677 c -2.34629,-1.35123 -4.68959,-2.65795 -5.20734,-2.90382 -0.51775,-0.24587 -2.35341,-1.30009 -4.07924,-2.34269 -1.72583,-1.04261 -3.8439,-2.23337 -4.70682,-2.64615 -0.86291,-0.41278 -1.71093,-0.89746 -1.88448,-1.07708 -0.17355,-0.1796 -1.50034,-0.96197 -2.94842,-1.7386 -1.96297,-1.05276 -3.67909,-1.41204 -6.74468,-1.41204 -2.32282,0 -4.11181,-0.27306 -4.11181,-0.62758 0,-0.34517 -0.37984,-0.62758 -0.84409,-0.62758 -0.97384,0 -2.80823,-1.88403 -3.8232,-3.92667 -0.61322,-1.23411 -1.25861,-1.43045 -5.23321,-1.59211 -3.74841,-0.15245 -4.53374,-0.0166 -4.53374,0.78447 0,0.53288 0.35301,0.96875 0.78447,0.96862 0.80133,-2.5e-4 8.68813,3.78473 9.25674,4.44243 0.17259,0.19962 1.16102,0.78708 2.19652,1.30547 1.0355,0.51839 4.42441,2.3093 7.5309,3.9798 3.1065,1.6705 7.34264,3.90713 9.41364,4.97029 2.071,1.06315 3.90666,2.07447 4.07924,2.24738 0.17258,0.1729 1.58463,0.96533 3.13788,1.76097 1.55325,0.79563 4.09183,2.14902 5.6413,3.00753 2.28193,1.26435 6.99201,3.22067 8.08823,3.35943 0.13017,0.0165 2.24824,-0.97695 4.70682,-2.20762 z m -3.08526,-7.13641 c 0.19985,-0.32335 1.84037,-1.31698 3.6456,-2.20804 1.80523,-0.89107 3.84705,-1.94188 4.53739,-2.33513 2.29261,-1.30601 3.11226,-1.7365 6.36841,-3.34481 1.77678,-0.87761 3.5614,-1.99434 3.9658,-2.48161 0.73695,-0.88798 1.14084,-20.76554 0.43624,-21.47014 -0.18071,-0.1807 -1.12474,0.0999 -2.09784,0.6236 -0.9731,0.52368 -4.02856,1.99959 -6.78989,3.2798 -9.30961,4.31612 -11.29349,5.36688 -12.08083,6.39862 -0.83856,1.09886 -1.17252,20.90083 -0.36608,21.70726 0.60839,0.6084 1.95988,0.51216 2.3812,-0.16955 z m -4.84479,-11.14035 0.15131,-10.77082 -2.76422,-2.96816 -2.76423,-2.96816 -2.34694,1.11369 c -1.82913,0.86798 -3.41873,1.05165 -7.20478,0.83248 -4.70674,-0.27247 -4.92814,-0.35776 -7.11797,-2.74226 -1.24307,-1.35358 -2.26148,-2.9386 -2.26314,-3.52227 -0.002,-0.58367 -0.2854,-1.23576 -0.63057,-1.44908 -0.96074,-0.59377 -0.74667,-4.89357 0.37893,-7.61116 0.55358,-1.33653 2.00112,-3.34788 3.21676,-4.46967 1.98856,-1.83505 2.59576,-2.04059 6.05372,-2.04923 2.11391,-0.005 4.14059,-0.21709 4.50374,-0.47068 1.00756,-0.70359 2.79139,-4.86053 2.79139,-6.50492 0,-2.49263 -3.77977,-7.27826 -7.11532,-9.0088 -6.12183,-3.17612 -7.33123,-2.30791 -17.04634,12.23739 -1.72583,2.58389 -3.34968,4.79212 -3.60856,4.90717 -0.25887,0.11506 -0.47068,0.48057 -0.47068,0.81226 0,0.33169 -1.41205,2.46834 -3.13788,4.74811 -3.52432,4.65552 -3.97545,6.46816 -1.60979,6.46816 2.68647,0 4.68774,1.15235 6.46652,3.72345 1.66169,2.40187 1.87495,2.50566 5.19569,2.52849 2.64584,0.0182 4.01507,0.39904 5.80322,1.61412 2.14126,1.45502 4.85435,5.49744 4.85435,7.2328 0,1.05254 -2.02544,5.22488 -2.79138,5.75016 -1.37919,0.94586 1.66223,3.47313 8.12578,6.75214 0.69033,0.35021 1.74936,0.91983 2.35341,1.26582 1.79544,1.02842 3.14564,1.75923 5.96196,3.22698 1.46696,0.76452 2.66719,1.64309 2.66719,1.95238 0,0.3093 0.49422,0.46742 1.09826,0.35139 0.98794,-0.18977 1.11346,-1.29286 1.24957,-10.98178 z m -27.40017,-2.88541 c 4.00316,-3.43434 3.64273,-8.9125 -0.73325,-11.14496 -2.25997,-1.15296 -2.27488,-1.1517 -4.53015,0.38079 -3.79409,2.57815 -3.77406,8.73355 0.0361,11.09589 2.26839,1.40642 3.27578,1.34249 5.2273,-0.33172 z m -20.13309,-3.8551 c 0,-0.83199 -4.43975,-4.7967 -4.99037,-4.4564 -1.10337,0.68192 -0.74294,1.78456 1.06802,3.26731 1.50517,1.23237 3.92235,1.96516 3.92235,1.18909 z m 6.29059,-2.87934 c 3.74741,-2.66839 3.72608,-7.98728 -0.0422,-10.53393 -6.38711,-4.31642 -11.7652,5.39845 -5.73801,10.36503 2.11019,1.73887 3.5177,1.78 5.78026,0.1689 z m 128.52013,-3.72948 c 0.75524,-1.02152 1.37317,-2.14157 1.37317,-2.48901 0,-0.34743 0.40006,-1.5591 0.88901,-2.6926 0.48895,-1.1335 1.33618,-3.09203 1.88273,-4.35228 1.87796,-4.33028 1.04308,-5.65311 -2.31673,-3.67077 -1.63295,0.96346 -2.40101,2.04161 -3.18605,4.47236 -0.56892,1.76156 -1.03441,3.69185 -1.03441,4.28951 0,0.59767 -0.4425,1.97369 -0.98334,3.05782 -1.75246,3.51289 0.97503,4.63195 3.37562,1.38497 z m -4.84683,-4.16796 c 0.3136,-0.38 0.74504,-1.96661 0.95875,-3.52581 0.43407,-3.1669 -0.25149,-4.08051 -2.25668,-3.00736 -1.10601,0.59191 -1.26812,1.30429 -1.26812,5.5726 0,5.37481 0.623,6.96951 1.45846,3.73322 0.29557,-1.14497 0.79399,-2.39266 1.10759,-2.77265 z m -77.97195,3.28849 c 1.57836,-0.80924 3.75375,-1.83521 14.34867,-6.76721 2.48844,-1.15838 4.53398,-2.24735 4.54564,-2.41994 0.0117,-0.17258 -0.96529,-0.98561 -2.17102,-1.80672 -1.76282,-1.20051 -2.19223,-1.90009 -2.19223,-3.57153 0,-2.59221 -0.76815,-3.10018 -2.97969,-1.97041 -0.94992,0.48527 -2.79028,1.34115 -4.08969,1.90196 -5.05191,2.18034 -7.11351,3.11469 -8.71683,3.95063 -0.91618,0.47768 -2.02358,0.8685 -2.46089,0.8685 -1.79861,0 -3.09047,2.06539 -3.09047,4.94099 0,2.32149 0.31556,3.1349 1.66656,4.29577 1.92717,1.65597 2.8377,1.75836 5.13995,0.57796 z m 69.74687,-4.32344 c -0.009,-3.35348 -0.23681,-4.13669 -1.56894,-5.40026 -1.76119,-1.67056 -1.78044,-1.63092 -0.96356,1.98448 0.32699,1.44722 0.7634,3.69035 0.9698,4.98472 0.59379,3.7238 1.57461,2.73907 1.5627,-1.56894 z m 3.66222,0.39649 c -0.10984,-1.33986 -0.48212,-2.43611 -0.82728,-2.43611 -0.73313,0 -1.20357,3.74588 -0.65123,5.18529 0.67147,1.74982 1.6918,-0.1474 1.47851,-2.74918 z m -113.19011,2.31408 c 0.19859,-0.32132 0.074,-0.7616 -0.27674,-0.97841 -0.35081,-0.2168 -0.63782,0.0461 -0.63782,0.58421 0,1.10236 0.37658,1.26467 0.91456,0.3942 z m 23.53654,-3.15518 c 3.30526,-3.53829 3.11194,-10.07572 -0.40185,-13.58952 -2.56573,-2.56573 -4.63117,-2.72554 -7.44892,-0.57634 -3.9716,3.02928 -4.22898,11.79845 -0.43392,14.78365 2.46618,1.93989 6.15222,1.66502 8.28469,-0.61779 z m 5.21851,-0.77926 c 1.8865,-2.90941 2.33645,-7.8522 0.98486,-10.81862 -0.88,-1.93141 -3.66872,-3.97511 -3.66872,-2.68862 0,0.45668 0.35301,1.18367 0.78447,1.61553 1.28221,1.28344 1.03037,10.98626 -0.324,12.48282 -0.97552,1.07793 -0.91335,2.04481 0.13148,2.04481 0.21051,0 1.15187,-1.18617 2.09191,-2.63592 z m 83.7516,-5.27415 c -0.20855,-0.20854 -0.74983,-0.23083 -1.20286,-0.0495 -0.50063,0.20034 -0.35193,0.34905 0.37916,0.37916 0.66157,0.0272 1.03223,-0.12108 0.8237,-0.32961 z m -75.23594,-1.72205 c 0.91618,-0.46534 2.72481,-1.31257 4.01918,-1.88273 12.43542,-5.47773 12.48587,-5.50491 11.78551,-6.34881 -0.4172,-0.50269 -3.19711,-0.90844 -7.70948,-1.12527 -5.68748,-0.27329 -7.37797,-0.15071 -8.71086,0.63164 -2.03713,1.19572 -3.68055,4.49814 -3.68055,7.39601 0,1.78995 0.23295,2.17522 1.31522,2.17522 0.72337,0 2.06481,-0.38073 2.98098,-0.84606 z m 81.05408,-0.75992 c 0,-1.08934 -0.0742,-1.09539 -2.31255,-0.18868 l -1.76669,0.71564 1.56894,0.44065 c 1.85274,0.52036 2.5103,0.2669 2.5103,-0.96761 z m -15.42243,-5.97668 c -0.59899,-0.66187 -1.46891,-1.2034 -1.93316,-1.2034 -1.39735,0 -0.95413,1.72938 0.88173,3.44042 1.68758,1.57282 1.73043,1.57919 1.93316,0.28743 0.11403,-0.72658 -0.28275,-1.86258 -0.88173,-2.52445 z m 13.74976,1.93992 c 0.91997,-1.03252 1.67267,-2.27416 1.67267,-2.75922 0,-0.48505 -1.31179,-1.97014 -2.91508,-3.3002 -1.60329,-1.33006 -3.66166,-3.15693 -4.57414,-4.05972 -0.91248,-0.90279 -2.21298,-1.80639 -2.88999,-2.008 -1.60254,-0.47724 -5.05931,2.43138 -5.6402,4.74582 -0.45435,1.8103 -0.73346,1.46843 5.9782,7.32266 3.0109,2.62624 6.06176,2.64762 8.36854,0.0587 z m 8.3603,-0.0868 c 0.78549,-0.6519 0.56764,-0.94473 -1.42321,-1.9131 -1.29286,-0.62886 -2.41381,-1.14338 -2.491,-1.14338 -0.16185,0 -1.51826,3.80139 -1.51826,4.25501 0,0.56691 4.50203,-0.42634 5.43247,-1.19853 z m -92.65344,-2.27201 c 0.007,-0.25887 1.01795,-1.60032 2.24739,-2.98098 1.22944,-1.38067 6.07135,-7.02884 10.75979,-12.55151 4.68844,-5.52266 8.83108,-10.32362 9.20587,-10.66878 0.37478,-0.34517 2.71093,-3.06053 5.19145,-6.03414 2.48051,-2.97361 4.88465,-5.7977 5.34252,-6.27576 1.54743,-1.61563 3.01275,-4.27 3.01275,-5.45751 0,-3.14408 -2.86198,-6.36895 -6.43265,-7.24829 -1.88048,-0.46311 -2.36818,-1.65626 -0.67699,-1.65626 0.57686,0 1.56803,-0.46987 2.2026,-1.04415 1.00353,-0.90818 1.36176,-0.93284 2.75086,-0.18942 0.87838,0.4701 10.36661,9.48284 21.08494,20.02831 10.71833,10.54547 19.87502,19.39595 20.34821,19.66774 0.48709,0.27978 1.47891,0.11858 2.28615,-0.37158 0.78419,-0.47616 2.62604,-1.23795 4.093,-1.69287 1.46696,-0.45492 2.6672,-1.0983 2.6672,-1.42974 0,-0.46343 -9.59459,-12.06382 -11.27386,-13.63072 -0.612,-0.57105 -4.68926,-5.31466 -7.23962,-8.42281 -1.38067,-1.68263 -2.79271,-3.37093 -3.13788,-3.7518 -0.34517,-0.38085 -2.4507,-2.81014 -4.67896,-5.3984 -7.34618,-8.53303 -9.49811,-10.19141 -15.508,-11.95127 -1.43816,-0.42113 -3.27382,-0.60671 -4.07924,-0.4124 -0.80542,0.19431 -2.50023,0.62038 -3.76623,0.94681 -1.35348,0.34899 -7.71292,4.56861 -15.4355,10.24177 -7.22352,5.30654 -13.77674,10.07186 -14.56272,10.58961 -0.78597,0.51775 -1.74744,1.22415 -2.13661,1.56976 -0.38917,0.34563 -1.76468,1.33406 -3.05669,2.19652 -1.29201,0.86246 -2.35105,1.77992 -2.35341,2.0388 -0.003,0.25887 -0.28493,0.47068 -0.62794,0.47068 -1.00815,0 -13.49679,9.51356 -13.49679,10.28154 0,0.38557 0.70602,0.79554 1.56893,0.91106 0.86292,0.11553 1.83723,0.46854 2.16514,0.78447 0.32791,0.31594 1.04019,0.57444 1.58285,0.57444 1.45839,0 5.52426,3.56642 7.33379,6.4329 1.61547,2.55906 1.71874,4.62668 0.51337,10.2776 -0.30655,1.4372 -0.11327,2.31908 0.72214,3.29477 1.08998,1.273 3.35884,1.85066 3.38414,0.86161 z m 66.2661,-3.13788 c 0.77144,-2.46776 2.47449,-4.98675 4.80418,-7.10588 l 2.46497,-2.24218 -17.03539,-16.89887 c -9.36947,-9.29438 -17.30413,-16.99302 -17.63259,-17.10807 -0.32846,-0.11506 -0.5972,0.7604 -0.5972,1.94546 0,1.98147 -2.21597,5.89073 -4.82202,8.50666 -1.24421,1.24893 -0.99584,3.39014 0.5961,5.13909 0.78224,0.85938 2.5473,2.963 3.92235,4.6747 2.90387,3.61482 3.56509,4.30148 6.91743,7.18356 2.97012,2.55346 9.96913,8.77294 16.13351,14.3366 3.17193,2.86282 4.70129,3.31998 5.24866,1.56893 z m 24.24964,-1.03051 c 1.75335,-1.33098 1.34175,-2.32138 -2.88293,-6.93689 l -3.98117,-4.3495 -2.23254,1.0594 c -1.22789,0.58268 -2.54285,1.05941 -2.92214,1.05941 -1.43665,0 -0.67705,2.87495 1.0362,3.92183 0.94921,0.58002 2.974,2.19416 4.49953,3.58698 2.88391,2.63303 4.61587,3.07617 6.48305,1.65877 z m -62.45855,-6.50039 c 8.29558,-9.01053 9.5853,-10.57696 9.5853,-11.64184 0,-0.53034 -0.95603,-2.04631 -2.12452,-3.36882 -1.16848,-1.32251 -2.85597,-3.25179 -3.74999,-4.28729 l -1.62548,-1.88272 -2.36886,2.62072 c -1.30288,1.4414 -4.10818,4.6891 -6.23401,7.21712 -2.12582,2.52801 -4.38509,5.16414 -5.0206,5.85804 -0.63551,0.69391 -2.18111,2.52957 -3.43467,4.07924 -1.25357,1.54968 -3.02323,3.61374 -3.93259,4.5868 -0.90935,0.97307 -1.49089,2.0321 -1.29231,2.35341 0.19858,0.32131 3.5568,0.5842 7.46271,0.5842 h 7.10167 z m 63.64607,-1.4608 c -2.09582,-2.2496 -2.94772,-1.08887 -0.94643,1.28952 1.38397,1.64476 1.84204,1.89567 1.99651,1.09363 0.11024,-0.57248 -0.36229,-1.6449 -1.05008,-2.38315 z"
       id="path364" />
    <path
       style="fill:#9f9f9f;stroke-width:0.706036"
       d="m 338.00974,260.14385 c -0.98652,-1.06391 -1.79367,-2.56245 -1.79367,-3.33007 0,-2.81155 4.18689,-12.99873 5.94061,-14.45419 1.4564,-1.2087 1.39348,-2.13142 -0.29232,-4.28659 -1.11265,-1.42244 -1.38372,-2.89769 -1.39638,-7.59947 -0.009,-3.2089 0.25937,-6.38607 0.59555,-7.06036 0.33618,-0.67429 1.66539,-3.45 2.95378,-6.16824 1.28839,-2.71824 2.68083,-5.38761 3.09431,-5.93194 0.49082,-0.64615 0.75217,-7.96571 0.75291,-21.08712 l 10e-4,-20.09742 3.17717,-2.7397 3.17716,-2.73969 31.92357,-0.002 31.92357,-0.002 2.41729,2.1224 c 4.67454,4.10431 4.83368,4.99444 4.60986,25.78533 -0.1799,16.71025 -0.0773,18.75604 1,19.94648 0.66025,0.72957 1.20165,1.61919 1.20311,1.97694 0.001,0.35774 0.95342,2.55674 2.11546,4.88666 1.86703,3.74345 2.11311,4.96295 2.11545,10.48384 0.002,4.33412 -0.35221,6.99543 -1.15596,8.68923 -1.11538,2.35047 -1.10302,2.48057 0.3308,3.48486 1.5634,1.09504 4.358,6.68391 4.358,8.71548 0,0.65306 0.46647,1.80411 1.0366,2.55789 1.63829,2.16602 1.29673,4.78332 -0.89873,6.8867 l -1.98023,1.89719 H 386.51109 339.8034 Z m 94.64453,-2.65949 c 0.93928,-3.74237 -2.35693,-12.4301 -5.44866,-14.36092 -1.15807,-0.72323 -9.67975,-0.89984 -40.63822,-0.84225 -42.67124,0.0794 -41.32137,-0.0483 -43.25652,4.0924 -0.49787,1.06531 -1.18186,2.4822 -1.51996,3.14864 -1.25892,2.4814 -1.96065,7.15751 -1.26826,8.45124 0.65102,1.21646 2.96488,1.28062 46.1864,1.28062 h 45.50105 z m -8.12201,-18.57485 c 2.80345,-0.39445 4.17861,-3.39744 4.15106,-9.06486 -0.0186,-3.83694 -0.32635,-5.19719 -1.49262,-6.59841 l -1.46913,-1.76509 -39.63399,0.19364 c -46.32755,0.22633 -42.10511,-0.6393 -42.10511,8.63181 0,9.02108 -1.68061,8.43798 25.06429,8.69617 28.77713,0.27781 53.13922,0.23686 55.4855,-0.0933 z m -31.81336,-3.03454 c -2.36389,-0.94338 -2.82246,-1.84806 -2.82246,-5.56837 0,-5.79422 1.26049,-6.35432 14.30036,-6.35432 12.21893,0 14.40417,0.57334 15.03673,3.94517 0.79577,4.2418 -0.16213,7.12644 -2.65505,7.99547 -2.72417,0.94965 -21.47033,0.93554 -23.85958,-0.0179 z m 3.15723,-4.15629 c 1.11247,-1.22927 2.17457,-1.41208 8.204,-1.41208 6.27067,0 6.99976,0.13763 7.70446,1.45439 0.54834,1.02458 1.33813,1.38972 2.67248,1.23556 1.65233,-0.19089 1.89411,-0.53426 1.89411,-2.68995 v -2.47112 h -11.6496 -11.64959 l -0.21914,2.64763 c -0.25192,3.04386 0.96111,3.53634 3.04328,1.23557 z m 28.57098,-14.72608 c -0.0129,-1.02617 -0.64139,-2.60723 -1.39659,-3.51346 l -1.37311,-1.64768 -2.31009,1.64768 -2.3101,1.64769 -30.16853,0.19826 c -29.09159,0.19119 -30.26841,0.14731 -32.96635,-1.22908 -1.53881,-0.78503 -3.27058,-1.24593 -3.84839,-1.0242 -1.07175,0.41127 -2.77845,4.30964 -2.25649,5.15418 0.15835,0.25621 17.47008,0.50331 38.47052,0.54911 l 38.18262,0.0833 z m -7.47278,-5.71746 c 3.83868,-1.45947 4.07664,-2.69448 4.05975,-21.06992 -0.009,-9.28588 -0.21082,-17.66154 -0.44952,-18.61258 -0.2412,-0.96104 -1.46517,-2.28451 -2.7553,-2.97928 -2.12176,-1.14264 -4.88545,-1.24499 -32.14912,-1.19058 -32.38209,0.0646 -31.30398,-0.0642 -34.02821,4.06743 -1.17429,1.78097 -1.3063,3.60792 -1.31048,18.13597 -0.004,15.02781 0.0958,16.318 1.43414,18.48353 0.79134,1.28042 2.30049,2.64313 3.35367,3.02825 2.51843,0.92093 59.45149,1.04721 61.84507,0.13718 z m -56.31066,-3.70645 c -3.43922,-2.56332 -3.97255,-4.961 -3.97255,-17.85917 0,-12.44376 0.50228,-14.97183 3.50686,-17.6509 1.51867,-1.35415 2.58222,-1.41208 25.92202,-1.41208 h 24.33838 l 2.41687,2.63727 2.41688,2.63727 -0.005,13.60156 c -0.004,12.07984 -0.15184,13.82481 -1.32028,15.59699 -2.59031,3.92873 -3.15121,4.00787 -28.23278,3.98352 -22.42973,-0.0217 -23.09558,-0.0626 -25.07045,-1.53446 z m 47.79102,-2.05599 c 3.73177,-1.90844 3.98074,-2.90709 3.99759,-16.034 l 0.0157,-12.23344 -2.0638,-2.0638 -2.06379,-2.06379 h -22.3282 -22.32816 l -1.73138,1.86819 c -1.70569,1.84047 -1.73138,2.05844 -1.73138,14.69181 0,13.33813 0.16541,14.16111 3.17717,15.80842 1.97604,1.08081 42.94752,1.105 45.05622,0.0266 z"
       id="path605" />
  </g>
</svg>
